<?xml version="1.0" standalone="no"?>
<!DOCTYPE svg PUBLIC "-//W3C//DTD SVG 20010904//EN"
 "http://www.w3.org/TR/2001/REC-SVG-20010904/DTD/svg10.dtd">
<svg version="1.0" xmlns="http://www.w3.org/2000/svg"
 width="1920.000000pt" height="1152.000000pt" viewBox="0 0 1920.000000 1152.000000"
 preserveAspectRatio="xMidYMid meet">
<metadata>
Created by potrace 1.15, written by Peter Selinger 2001-2017
</metadata>
<g transform="translate(0.000000,1152.000000) scale(0.100000,-0.100000)"
fill="#000000" stroke="none">
<path d="M0 5760 l0 -5760 2594 0 2594 0 6 27 c15 60 47 215 71 343 14 74 46
236 71 360 25 124 48 239 51 255 2 17 17 98 33 180 16 83 34 175 39 205 5 30
19 102 31 160 12 58 24 117 26 133 2 15 33 172 68 350 36 177 74 376 86 442
12 66 32 174 45 240 13 66 26 138 30 160 11 63 14 79 50 260 19 94 37 186 40
205 3 19 17 94 30 165 44 232 48 259 49 317 0 31 4 54 8 52 5 -3 8 -11 8 -18
0 -13 31 -46 43 -46 3 0 8 12 10 28 l4 27 2 -27 c0 -15 12 -44 26 -64 27 -40
30 -63 15 -145 -5 -30 -12 -67 -14 -84 -3 -16 -17 -102 -31 -190 -14 -88 -37
-227 -50 -310 -14 -82 -34 -208 -45 -280 -25 -166 -54 -344 -75 -465 -9 -52
-18 -106 -20 -120 -2 -14 -20 -119 -40 -235 -20 -115 -42 -250 -50 -300 -8
-49 -26 -155 -40 -235 -21 -121 -127 -758 -140 -840 -19 -122 -38 -238 -59
-366 -14 -84 -26 -159 -26 -168 0 -15 157 -16 1883 -16 l1884 0 44 31 c24 17
55 42 69 55 17 15 30 20 39 15 10 -7 -2 -21 -49 -55 l-62 -46 1521 0 c1199 0
1521 3 1521 13 0 9 2 9 8 0 8 -13 231 -16 252 -3 11 7 11 12 2 23 -7 7 -9 17
-5 20 10 11 23 8 23 -5 0 -7 7 -22 16 -33 13 -17 16 -18 24 -5 7 10 10 11 10
3 0 -10 59 -13 261 -13 l261 0 -3 40 c-2 21 0 42 4 46 7 8 8 1 10 -54 l1 -32
3023 0 3023 0 0 5760 0 5760 -2589 0 c-2458 0 -2590 -1 -2594 -17 -4 -17 -5
-17 -6 0 -1 16 -76 17 -1430 17 -1134 0 -1430 -3 -1434 -12 -4 -10 -6 -10 -6
0 -1 9 -446 12 -2188 12 l-2188 0 44 -27 c25 -15 55 -38 68 -52 31 -35 79
-119 87 -153 l6 -28 -62 6 c-85 7 -240 35 -254 45 -6 5 -26 8 -46 7 -19 -1
-40 2 -46 6 -19 12 -14 26 11 26 32 1 1 17 -38 20 -51 4 -67 1 -59 -11 3 -6
19 -9 35 -5 26 5 28 4 17 -13 -9 -15 -20 -17 -57 -13 -52 5 -48 -14 4 -21 17
-3 29 -10 27 -17 -2 -8 3 -10 13 -7 8 4 15 2 15 -3 0 -6 8 -10 18 -10 14 0 15
-2 2 -10 -12 -8 -9 -10 13 -10 15 0 27 5 27 10 0 6 -5 10 -12 10 -6 0 -8 3 -5
7 4 3 15 -1 24 -10 14 -12 42 -16 116 -16 54 -1 107 -6 118 -12 12 -6 47 -9
79 -7 56 3 59 2 63 -22 3 -14 1 -32 -4 -40 -7 -13 -8 -12 -9 3 0 12 -8 17 -27
18 -16 0 -40 2 -55 4 -32 4 -35 -2 -10 -22 15 -13 14 -14 -18 -9 l-35 5 33
-15 c18 -8 31 -18 28 -22 -7 -12 78 -9 86 3 4 5 8 -3 8 -20 0 -23 -3 -27 -10
-15 -8 12 -10 12 -10 1 0 -10 -12 -12 -57 -7 -32 4 -66 9 -75 12 -29 9 -20 25
10 19 23 -5 24 -5 9 5 -10 7 -29 9 -43 6 -16 -4 -24 -2 -24 6 0 8 -17 14 -46
16 -25 1 -61 9 -81 17 -19 8 -44 15 -54 15 -11 0 -45 9 -76 20 -65 23 -73 24
-73 10 0 -5 7 -10 15 -10 8 0 23 -4 33 -10 15 -8 57 -21 168 -49 17 -5 39 -13
50 -19 17 -10 15 -11 -16 -12 -19 0 -67 7 -105 15 -39 9 -86 18 -105 22 -19 3
-46 14 -59 25 -13 10 -36 18 -50 18 -15 0 -32 5 -39 12 -7 7 -12 8 -12 4 0 -5
-7 -3 -15 4 -11 9 -15 10 -15 1 0 -8 -8 -10 -21 -6 l-21 7 21 -21 c12 -12 28
-21 36 -21 8 0 23 -4 33 -9 48 -24 334 -83 359 -74 7 3 18 1 25 -4 7 -4 31 -8
53 -9 75 -2 86 -4 80 -14 -3 -5 -2 -10 4 -10 5 0 11 4 13 9 2 5 23 7 48 4 l46
-5 -12 -57 c-8 -39 -16 -55 -25 -52 -8 2 -18 4 -24 5 -5 1 -16 5 -22 9 -7 5
-13 5 -13 0 0 -4 -4 -3 -8 3 -7 11 -157 49 -223 57 -20 3 -42 7 -47 11 -6 3
-13 2 -17 -4 -3 -5 -16 -8 -28 -6 -12 3 -35 5 -51 5 -21 1 -27 5 -22 16 3 8 1
15 -4 15 -6 0 -10 -4 -10 -10 0 -14 -47 -11 -95 5 -37 13 -38 14 -10 13 17 0
37 1 45 2 26 3 -81 27 -150 34 -63 7 -155 31 -175 46 -5 5 -32 15 -60 23 -27
8 -63 21 -80 27 -16 7 -42 12 -57 11 -16 -2 -42 5 -60 13 -17 9 -52 19 -77 21
-80 9 -115 16 -159 32 -23 9 -45 13 -49 10 -3 -4 -14 -2 -24 3 -12 7 -20 7
-24 0 -3 -6 0 -12 7 -14 73 -21 98 -31 98 -39 0 -6 5 -5 13 1 12 11 60 5 154
-20 54 -13 46 -29 -12 -22 -36 4 -46 1 -54 -14 -7 -14 -5 -21 9 -29 15 -10 17
-9 13 6 -4 15 1 18 24 17 15 -1 38 -7 50 -14 12 -7 29 -12 37 -12 9 0 16 -4
16 -10 0 -5 7 -7 15 -4 8 4 23 3 33 -1 9 -4 24 -9 32 -10 8 -1 42 -10 75 -20
33 -10 72 -18 87 -17 15 0 30 -4 33 -9 8 -12 35 -12 35 1 0 5 -16 12 -35 16
-19 3 -35 11 -35 16 0 6 8 7 18 3 9 -3 29 -9 45 -12 21 -4 26 -10 22 -23 -3
-10 -1 -21 5 -25 6 -3 8 -11 5 -16 -4 -5 -1 -9 4 -9 6 0 11 5 11 10 0 6 7 10
15 10 18 0 20 -16 3 -23 -9 -3 -7 -7 6 -12 11 -5 21 -3 26 5 4 7 13 9 20 5 7
-5 28 -8 47 -7 18 1 33 -3 33 -8 0 -6 5 -10 11 -10 5 0 8 4 5 9 -4 5 3 7 14 4
24 -6 26 -21 5 -29 -18 -7 -20 -24 -2 -24 7 0 30 -9 52 -20 36 -18 66 -19 36
-1 -10 6 -8 10 6 15 22 9 29 6 25 -11 -2 -7 10 -26 25 -41 24 -25 65 -46 188
-97 86 -35 85 -35 85 -22 0 15 -47 40 -135 73 -107 40 -140 53 -132 54 45 8
142 0 169 -13 43 -20 71 -31 81 -28 4 0 10 -6 13 -14 4 -8 12 -15 20 -15 8 0
14 -5 14 -11 0 -8 12 -10 35 -6 21 3 37 1 42 -5 4 -8 9 -5 15 8 5 12 6 3 3
-26 -9 -92 -17 -120 -34 -120 -13 0 -14 -2 -2 -9 12 -8 12 -21 -2 -93 -10 -45
-17 -92 -17 -103 0 -41 -13 -46 -63 -29 -26 9 -45 20 -42 24 3 4 -4 6 -15 3
-13 -3 -26 1 -33 11 -13 16 -62 12 -51 -5 3 -5 10 -7 15 -3 6 3 20 -3 32 -14
12 -11 48 -28 80 -37 l59 -17 -7 -45 c-10 -70 -13 -73 -61 -73 -49 0 -62 -16
-14 -18 36 -1 50 -9 50 -27 0 -19 -71 -11 -82 9 -5 9 -16 16 -23 16 -8 0 -15
5 -15 11 0 6 -9 8 -21 4 -13 -5 -19 -3 -15 3 5 9 -36 24 -74 27 -44 4 -91 17
-104 30 -7 8 -29 16 -47 18 -19 2 -47 9 -62 16 -16 6 -32 9 -36 7 -4 -3 -13 0
-21 5 -11 7 -1 8 30 5 25 -4 64 -8 86 -10 23 -2 52 -10 65 -17 48 -25 201 -43
207 -24 1 6 -25 16 -60 23 -34 7 -65 17 -69 23 -5 8 -8 8 -10 0 -5 -15 -153
22 -155 38 -3 24 -5 25 -14 11 -7 -11 -12 -12 -21 -3 -6 6 -27 9 -49 6 -31 -4
-39 -2 -43 13 -4 17 -5 17 -6 2 0 -10 -6 -18 -12 -18 -6 0 -9 6 -6 13 3 8 8
39 12 69 6 48 10 55 26 51 15 -4 19 0 19 18 0 13 -4 20 -8 14 -8 -11 -42 -16
-42 -6 0 10 -60 30 -117 41 -27 5 -91 18 -143 29 -52 12 -142 31 -200 43 -84
18 -99 23 -75 28 27 6 24 8 -29 19 -33 7 -76 21 -95 32 -43 22 -200 51 -220
40 -17 -10 -11 -13 70 -44 52 -20 75 -23 107 -17 23 4 39 3 36 -1 -3 -5 -14
-9 -25 -9 -32 0 -66 -42 -74 -91 -4 -24 -20 -111 -36 -193 -16 -83 -27 -157
-24 -167 10 -31 42 -50 105 -60 80 -13 95 -22 50 -31 -25 -5 -18 -6 25 -4 33
2 92 -3 130 -10 211 -38 255 -48 255 -56 0 -5 -4 -6 -10 -3 -5 3 -43 6 -84 7
-58 1 -73 4 -69 14 6 15 -12 19 -21 5 -12 -19 31 -41 75 -39 24 1 49 1 54 -1
6 -2 28 -3 50 -2 31 1 37 4 25 12 -12 8 -9 9 10 4 14 -3 50 -9 80 -12 70 -7
75 -2 101 118 11 51 22 95 23 97 2 1 16 -3 32 -9 16 -7 35 -11 42 -10 7 1 11
-4 10 -11 -3 -15 35 -12 40 3 6 15 22 10 22 -6 0 -8 5 -15 11 -15 5 0 7 5 4
10 -3 6 -2 10 3 10 13 0 110 -29 142 -42 14 -6 38 -13 54 -15 16 -2 34 -7 40
-12 11 -8 91 -22 133 -23 13 0 21 -4 18 -8 -3 -5 -1 -11 5 -15 5 -3 10 -15 10
-27 0 -17 -5 -19 -27 -14 l-28 5 26 -12 c22 -10 25 -16 18 -40 -4 -16 -14 -36
-21 -45 -10 -12 -10 -14 0 -8 9 6 12 1 8 -16 -3 -12 -12 -65 -22 -116 -14 -77
-21 -95 -38 -102 -19 -7 -19 -9 -3 -15 24 -10 21 -25 -5 -26 -19 -1 -19 -2 -5
-6 16 -4 18 -12 13 -51 -3 -26 -7 -58 -10 -72 -3 -14 -16 -76 -28 -139 l-22
-113 -41 6 c-22 3 -64 10 -93 14 -29 5 -55 5 -57 1 -5 -7 24 -12 132 -25 40
-5 53 -11 53 -23 0 -22 -47 -257 -53 -268 -3 -5 -51 -8 -106 -8 -75 1 -101 -2
-101 -12 0 -9 26 -12 101 -10 l101 2 -7 -40 c-3 -22 -10 -56 -16 -76 -9 -36
-10 -37 -47 -28 -20 5 -41 9 -45 9 -5 0 -5 5 -1 11 5 9 -8 10 -49 5 -35 -5
-57 -3 -62 3 -3 6 -21 11 -38 11 -18 1 -59 7 -92 15 -73 18 -114 20 -98 4 6
-6 21 -12 34 -13 26 -4 30 -5 159 -35 47 -12 99 -20 115 -20 29 1 102 -15 111
-24 6 -6 -15 -110 -25 -120 -5 -5 -53 2 -115 17 -58 14 -114 26 -124 26 -10 0
-22 4 -28 10 -8 8 -183 59 -274 79 -19 4 -56 15 -82 24 -50 18 -208 53 -298
68 -61 9 -125 22 -497 98 -139 28 -269 51 -288 51 -47 0 -54 -16 -100 -248
-34 -169 -36 -184 -21 -207 8 -13 23 -26 33 -29 10 -3 245 -51 523 -107 278
-56 515 -104 527 -106 39 -9 70 5 83 37 7 16 15 30 19 30 3 0 6 25 7 55 0 30
3 58 7 61 3 3 28 7 56 7 28 1 51 5 51 10 0 4 17 7 37 7 54 0 28 17 -37 24 -30
3 -63 6 -73 6 -25 0 -20 65 5 65 9 0 20 4 24 8 4 4 -3 7 -15 7 -19 0 -22 4
-17 23 3 12 9 39 12 60 6 33 10 38 28 33 12 -2 66 -16 121 -30 55 -14 150 -39
210 -55 61 -17 135 -36 165 -43 36 -9 55 -18 55 -28 0 -12 -11 -14 -49 -12
-45 2 -59 -8 -19 -14 49 -8 65 -15 59 -30 -3 -9 -6 -22 -6 -31 0 -10 -6 -13
-17 -8 -15 5 -16 4 -5 -6 6 -7 12 -22 12 -32 0 -17 -5 -19 -45 -15 -36 4 -47
2 -57 -13 -9 -13 -20 -17 -35 -13 -13 4 -23 11 -23 16 0 5 10 6 21 3 15 -5 19
-4 15 4 -4 6 -15 11 -24 11 -9 0 -31 8 -47 18 -17 11 -48 22 -70 26 -22 4 -43
13 -47 19 -6 9 -8 9 -8 0 0 -8 -10 -11 -29 -7 -16 3 -37 1 -48 -5 -16 -9 -16
-10 -1 -11 9 0 37 -9 62 -20 32 -13 44 -24 40 -34 -4 -11 4 -17 30 -21 20 -4
43 -4 52 -1 23 9 99 -13 123 -35 24 -23 51 -25 51 -4 0 8 6 15 13 15 24 0 -17
20 -43 20 -17 0 -21 3 -13 11 7 7 24 8 42 4 29 -6 31 -9 26 -41 -3 -19 -7 -51
-11 -71 -10 -70 -11 -72 -52 -67 -20 3 -55 7 -77 9 -52 5 -264 43 -275 50 -5
3 -28 7 -52 9 -23 3 -51 8 -60 11 -10 4 -18 3 -18 -2 0 -22 208 -67 385 -85
221 -22 127 -41 -120 -24 -38 2 -92 12 -118 21 -27 9 -51 14 -54 11 -10 -10
54 -33 122 -44 39 -7 97 -17 130 -24 33 -6 81 -13 107 -15 53 -5 56 -11 38
-73 -6 -19 -13 -55 -16 -80 -3 -24 -7 -46 -9 -48 -4 -4 -209 49 -286 73 -61
20 -69 19 -39 -5 l25 -20 -30 -1 -30 -1 34 -10 c25 -7 36 -6 41 3 5 7 18 9 36
5 16 -4 38 -9 49 -11 11 -3 45 -12 75 -21 30 -9 68 -19 85 -23 18 -4 31 -14
33 -25 3 -14 0 -17 -13 -12 -25 9 -101 20 -94 13 3 -4 14 -8 25 -10 51 -10 74
-20 74 -34 0 -12 -8 -14 -37 -8 -25 4 -35 3 -28 -3 6 -6 19 -12 30 -14 11 -2
21 -11 23 -21 2 -12 -1 -15 -12 -11 -9 3 -16 1 -16 -5 0 -6 5 -11 10 -11 6 0
10 -6 10 -14 0 -12 -13 -9 -61 10 -34 14 -84 28 -110 31 -27 3 -49 10 -49 16
0 5 -7 4 -15 -3 -10 -9 -15 -9 -15 -1 0 6 -5 11 -11 11 -5 0 -7 -5 -3 -12 5
-8 2 -9 -9 -5 -9 3 -19 2 -22 -3 -4 -6 5 -10 19 -10 14 0 27 -4 30 -9 3 -5 32
-12 63 -16 32 -4 73 -13 92 -21 18 -8 45 -14 59 -14 24 0 25 -1 18 -56 -8 -71
-11 -75 -41 -64 -15 6 -27 6 -30 0 -4 -6 8 -13 25 -16 29 -6 30 -8 24 -43 -4
-20 -8 -38 -10 -39 -1 -2 -26 1 -56 7 -29 5 -66 13 -83 16 -16 2 -55 9 -84 15
-30 5 -57 8 -59 6 -5 -6 90 -36 115 -36 12 0 42 -4 65 -10 24 -5 56 -12 71
-15 33 -7 34 11 -20 -250 -19 -93 -39 -195 -44 -225 -5 -30 -17 -88 -25 -128
-15 -67 -18 -73 -38 -68 -60 18 -168 38 -221 42 -33 3 -69 8 -80 11 -37 12
-48 12 -71 -4 -27 -18 -31 -33 -8 -33 8 0 12 5 8 11 -5 8 12 9 57 5 35 -4 83
-9 107 -11 23 -2 57 -8 75 -14 18 -5 58 -15 90 -22 34 -7 57 -17 57 -25 0 -22
-39 -216 -45 -222 -7 -8 -245 -9 -245 -2 0 8 -260 24 -339 21 -30 -1 -62 -6
-70 -11 -10 -6 10 -8 54 -5 39 2 113 -1 165 -7 152 -16 178 -18 308 -18 141 1
133 8 106 -107 -9 -37 -17 -79 -18 -93 -2 -17 -10 -26 -25 -28 -11 -2 -21 -8
-21 -13 0 -5 -31 -9 -70 -9 -40 0 -70 4 -70 10 0 6 -16 10 -35 10 -19 0 -35 5
-35 11 0 7 23 10 68 8 72 -3 169 9 177 21 3 4 -70 7 -162 6 -92 -1 -180 0
-196 2 l-29 5 46 29 c50 30 52 48 8 47 l-27 0 25 -11 c23 -10 23 -11 5 -15
-11 -2 -30 -9 -43 -16 -18 -8 -25 -8 -30 0 -4 7 -19 16 -32 22 -23 9 -20 10
20 12 32 1 16 5 -55 14 l-100 12 53 8 c83 12 76 28 -12 23 -57 -2 -76 0 -76 9
0 14 -3 14 -120 19 -148 5 -223 13 -231 25 -3 6 -11 9 -17 5 -5 -3 -32 -2 -58
3 -53 10 -66 7 -58 -13 3 -8 18 -13 37 -12 26 1 32 -3 32 -19 0 -17 7 -20 48
-19 26 0 47 -2 47 -5 0 -4 12 -12 28 -18 15 -7 38 -23 52 -36 21 -20 29 -22
52 -13 23 9 31 6 54 -17 26 -27 72 -39 58 -15 -5 8 -2 9 12 4 10 -5 27 -11 36
-13 10 -3 16 -9 13 -13 -3 -5 4 -6 15 -3 11 3 20 1 20 -5 0 -6 -10 -13 -22
-16 -13 -2 -6 -4 14 -2 21 1 39 -2 41 -7 4 -13 47 1 47 15 0 6 -10 8 -21 5
-16 -4 -19 -3 -11 5 16 16 62 -6 62 -29 0 -13 -2 -15 -9 -5 -6 10 -10 10 -21
-3 -10 -13 -9 -15 6 -16 11 -1 25 -1 32 0 6 1 12 -5 12 -14 0 -8 7 -15 16 -15
9 0 28 -6 42 -14 42 -22 146 -34 161 -19 6 7 17 13 24 13 7 0 4 -7 -6 -14 -17
-13 -16 -15 14 -36 24 -18 33 -20 39 -10 7 11 15 10 43 -3 19 -10 49 -17 67
-17 29 0 31 -2 26 -27 -29 -154 -25 -143 -54 -138 -25 5 -25 5 -4 -4 16 -8 22
-19 22 -44 0 -19 -2 -36 -5 -39 -6 -5 -100 15 -135 29 -19 8 -26 7 -28 -3 -2
-8 -8 -12 -13 -9 -5 4 -9 2 -9 -4 0 -15 18 -23 22 -9 3 8 17 7 53 -5 27 -10
58 -17 69 -17 15 0 21 -7 22 -24 1 -16 -3 -23 -15 -22 -9 0 -16 -6 -16 -14 0
-8 6 -14 13 -12 16 3 15 -14 -11 -148 l-23 -115 -39 -5 c-39 -5 -39 -5 -13
-17 19 -9 28 -9 38 0 9 9 11 5 5 -23 -10 -48 -12 -50 -43 -41 -15 5 -49 8 -75
7 -26 -1 -47 3 -47 9 0 5 -4 4 -9 -4 -7 -11 -13 -12 -23 -3 -15 12 -91 5 -83
-8 2 -4 24 -7 48 -7 25 -1 60 -10 82 -23 27 -15 49 -20 74 -17 20 3 28 3 19 1
-10 -3 -18 -10 -18 -15 0 -7 -22 -8 -57 -4 -44 4 -54 3 -41 -5 10 -6 34 -11
55 -11 21 0 50 -3 65 -6 31 -5 31 2 3 -119 l-16 -71 -71 14 c-91 17 -198 25
-177 13 15 -9 117 -32 194 -45 22 -4 43 -9 47 -11 13 -8 -13 -63 -27 -58 -7 3
-16 1 -19 -4 -3 -5 -17 -7 -31 -5 -13 3 -23 9 -20 13 3 5 14 6 25 3 11 -3 20
-1 20 4 0 12 -85 34 -105 27 -10 -4 -15 0 -15 15 0 24 -4 25 -31 11 -13 -7
-19 -7 -19 0 0 5 -8 10 -17 10 -15 0 -15 -1 -1 -12 22 -18 31 -61 12 -54 -9 3
-22 -1 -30 -9 -17 -16 -22 -14 96 -35 36 -7 69 -17 73 -23 6 -9 10 -9 14 1 4
10 9 8 20 -7 10 -15 11 -26 4 -39 -20 -38 -35 -43 -79 -28 -22 8 -43 12 -46 9
-3 -4 -6 1 -6 9 0 20 -21 28 -50 21 -21 -6 -94 13 -116 29 -12 9 -86 7 -94 -3
-3 -4 -16 -2 -30 3 -24 10 -24 11 -5 18 11 5 18 9 15 10 -29 8 -36 5 -38 -16
-1 -14 4 -24 11 -24 7 0 21 -10 31 -22 18 -20 18 -21 0 -13 -38 15 -74 23 -74
17 0 -3 -5 -1 -12 6 -7 7 -24 12 -39 12 -15 0 -30 4 -33 9 -3 4 -37 11 -76 13
-49 4 -77 11 -90 23 -16 14 -39 19 -103 20 -52 1 -93 7 -112 17 -35 18 -160
34 -151 20 6 -10 69 -27 209 -58 108 -23 112 -39 6 -29 -46 5 -100 9 -119 10
-19 1 -53 6 -75 9 l-40 8 30 -17 c17 -9 53 -18 80 -20 28 -2 62 -8 76 -13 28
-11 150 -19 165 -10 5 3 47 0 94 -7 47 -7 78 -13 70 -14 -10 -1 -6 -7 10 -18
19 -14 42 -17 99 -16 41 2 103 -4 138 -12 35 -8 75 -15 89 -15 13 0 33 -9 44
-20 11 -11 20 -16 20 -11 0 9 29 7 74 -6 l28 -9 -53 -26 c-30 -15 -55 -22 -57
-17 -2 5 -10 2 -19 -6 -8 -8 -34 -16 -59 -17 -24 -1 -59 -2 -76 -4 -18 -1 -38
3 -43 10 -6 6 -20 17 -32 23 -18 10 -25 10 -37 -2 -8 -8 -21 -15 -28 -15 -10
0 -9 3 2 10 13 8 12 10 -2 10 -11 0 -18 8 -18 20 0 24 -6 25 -26 6 -12 -13
-12 -16 3 -25 12 -7 13 -10 4 -11 -7 0 -26 11 -42 25 -16 13 -36 22 -43 19 -8
-3 -27 2 -43 11 l-28 16 40 -5 c22 -2 49 -8 60 -12 18 -7 18 -6 6 9 -13 16 -2
25 13 10 4 -4 54 -8 111 -8 69 0 99 3 88 9 -21 11 -354 35 -407 28 -21 -2 -41
0 -45 6 -4 6 -20 8 -41 3 -19 -4 -55 -4 -80 0 -48 7 -73 2 -64 -12 6 -10 -28
-4 -71 11 -11 4 -26 5 -34 2 -8 -3 -11 0 -7 6 4 6 -2 16 -13 22 -13 7 -22 7
-26 0 -3 -5 2 -10 12 -11 11 0 13 -3 5 -6 -11 -4 -227 34 -244 43 -11 7 4 44
19 44 8 0 12 -4 9 -9 -3 -5 7 -11 22 -13 15 -3 34 -8 44 -12 12 -5 16 -3 15
11 -1 10 3 17 9 16 7 -1 20 7 29 17 18 20 17 20 -30 20 -44 0 -46 -1 -34 -17
13 -17 13 -17 -13 0 -23 14 -26 14 -22 2 8 -19 4 -19 -34 0 -17 9 -45 15 -64
13 -18 -1 -42 3 -53 10 -18 10 -15 11 20 12 22 0 54 -4 71 -9 17 -5 37 -5 44
-1 17 11 0 19 -52 26 -47 6 -171 23 -343 49 -60 9 -118 20 -128 26 -11 6 -17
6 -17 -2 0 -6 -8 -8 -17 -5 -30 9 -79 16 -65 10 6 -3 12 -12 12 -20 0 -10 12
-14 43 -13 24 1 49 -1 56 -5 6 -4 18 -2 26 4 12 10 15 9 15 -4 0 -9 -8 -16
-17 -17 -11 0 -13 -2 -5 -6 7 -3 23 2 36 10 15 10 28 12 37 6 11 -7 9 -9 -8
-9 -13 0 -23 -4 -23 -10 0 -5 18 -10 40 -10 41 0 57 -19 18 -21 -17 -1 -15 -3
11 -10 52 -15 29 -22 -33 -10 -172 34 -172 34 -151 42 l20 8 -20 0 c-11 1 -31
4 -45 6 -22 5 -22 4 -5 -4 16 -8 17 -10 3 -10 -9 -1 -24 2 -32 5 -15 6 -15 8
1 20 16 12 15 13 -13 8 -19 -4 -34 -1 -38 5 -4 6 -12 9 -17 6 -5 -4 -9 1 -9 9
0 9 5 16 10 16 6 0 10 6 10 14 0 9 -7 12 -20 9 -15 -4 -20 -14 -20 -38 l0 -32
-87 19 c-49 10 -110 22 -136 25 -37 4 -51 11 -57 27 -7 18 -9 19 -15 4 -4 -9
-12 -15 -18 -13 -7 2 -24 6 -39 9 -16 4 -27 10 -25 14 1 4 -2 7 -8 7 -5 0 -9
-3 -8 -7 4 -10 -16 -9 -42 2 l-20 9 20 1 c17 1 16 3 -8 16 -29 16 -60 9 -36
-8 10 -7 8 -8 -6 -3 -11 4 -29 7 -40 6 -11 0 -45 4 -75 11 -30 6 -62 12 -70
13 -111 17 -290 54 -305 65 -5 3 -30 8 -55 9 -25 2 -47 4 -50 6 -3 2 -48 11
-100 20 -52 8 -102 18 -110 22 -8 3 -22 7 -30 8 -88 12 -118 18 -130 25 -9 6
5 7 39 5 29 -3 57 -7 62 -11 5 -3 9 0 9 6 0 7 7 9 16 6 9 -3 44 -9 78 -12 54
-5 59 -4 46 9 -9 9 -56 20 -115 27 -168 21 -175 22 -175 32 0 6 7 8 15 5 20
-8 28 8 10 23 -9 7 -30 10 -55 6 -28 -4 -39 -2 -37 7 1 7 -8 12 -19 12 -12 1
-28 6 -35 12 -12 9 -90 21 -146 23 -19 0 -15 18 5 22 12 3 9 6 -10 10 -20 4
-28 1 -28 -8 0 -9 -12 -14 -35 -14 -34 0 -42 11 -35 45 1 5 -2 7 -6 3 -4 -4
-13 0 -20 10 -8 10 -13 12 -14 5 0 -14 -30 -18 -30 -5 0 16 -61 31 -86 22 -13
-5 -24 -6 -24 -2 0 13 -61 30 -130 37 -36 4 -69 11 -75 17 -7 7 -2 9 17 4 15
-3 29 -2 32 3 8 12 -44 23 -107 23 -44 0 -47 2 -34 15 13 14 25 14 108 -2 52
-9 105 -23 119 -30 14 -7 57 -15 95 -19 77 -7 279 -43 475 -83 217 -44 206
-42 330 -57 84 -11 26 3 -205 50 -126 25 -351 71 -500 101 -148 30 -301 61
-340 68 -38 7 -146 30 -240 50 -93 19 -182 38 -196 41 -21 5 -25 10 -21 30 2
14 0 24 -7 24 -7 0 -9 -4 -6 -10 4 -6 -6 -10 -21 -10 -27 0 -27 1 -8 16 10 8
14 13 8 10 -9 -4 -10 4 -4 30 9 41 3 67 -14 61 -6 -3 -11 8 -12 24 -1 16 3 29
7 29 5 0 9 -7 9 -15 0 -24 27 -18 34 8 9 36 6 43 -9 23 -13 -17 -15 -18 -15
-3 0 13 -9 17 -37 17 -26 0 -34 3 -24 9 15 10 82 8 100 -3 20 -13 34 5 15 19
-10 7 -15 19 -11 29 4 9 2 16 -3 16 -6 0 -10 -7 -10 -15 0 -9 -9 -15 -25 -15
-16 0 -25 6 -25 15 0 18 16 20 23 3 3 -8 9 -3 15 12 7 19 6 26 -4 28 -15 4
-28 37 -19 52 3 6 17 -2 31 -17 32 -35 31 -13 -2 26 -29 35 -44 39 -45 14 0
-15 -2 -15 -8 2 -10 24 -10 24 15 28 51 10 69 37 23 37 -14 0 -19 7 -19 25 0
14 6 25 13 25 6 0 20 14 29 30 9 17 13 30 8 30 -18 0 -10 19 10 25 21 7 28 35
9 35 -5 0 -8 -4 -5 -9 3 -5 -7 -11 -22 -14 -31 -6 -43 0 -23 12 9 6 11 21 6
55 l-7 46 38 0 c26 0 34 3 25 9 -7 5 -22 6 -32 4 -31 -8 -22 7 11 19 25 8 28
13 19 24 -9 11 -8 18 1 29 10 12 9 15 -6 16 -17 0 -17 1 2 9 21 8 39 38 30 48
-3 2 -12 -3 -21 -12 -9 -9 -24 -16 -33 -16 -12 0 -9 4 8 13 14 7 26 22 28 34
3 18 11 23 50 26 l47 3 -47 2 c-37 2 -48 6 -48 18 0 10 -6 14 -14 11 -11 -5
-13 0 -6 23 4 16 6 31 2 34 -9 10 8 7 29 -4 21 -12 64 4 54 20 -3 4 1 10 7 13
22 8 0 19 -23 12 -16 -6 -18 -9 -8 -16 23 -14 4 -20 -29 -8 -18 6 -30 15 -27
20 3 4 13 5 22 2 11 -4 14 -3 9 5 -5 8 1 12 16 12 34 0 56 16 41 31 -6 6 -17
8 -23 4 -9 -6 -9 -10 1 -16 10 -6 6 -9 -13 -9 -29 0 -30 13 -1 55 15 23 17 65
3 65 -5 0 -10 -7 -10 -15 0 -8 -4 -15 -10 -15 -5 0 -10 11 -10 25 0 18 5 25
20 25 11 0 23 7 27 16 3 8 12 13 19 10 8 -3 14 -1 14 3 0 5 -7 11 -15 15 -8 3
-14 16 -14 28 0 13 -2 32 -6 44 -4 14 0 27 11 39 16 15 16 19 3 29 -8 6 -13
19 -11 29 2 9 -1 17 -7 17 -19 0 -12 17 9 23 11 3 20 9 19 14 -5 26 2 34 23
28 21 -6 21 -6 7 6 -9 8 -19 21 -22 29 -4 10 -6 8 -6 -6 -1 -12 -8 -24 -16
-28 -17 -6 -21 9 -4 20 6 3 9 15 6 25 -3 11 -1 19 4 19 14 0 11 38 -3 43 -7 2
-10 8 -6 12 11 12 26 -4 33 -35 4 -17 13 -30 21 -30 17 0 18 12 2 28 -10 10
-10 17 -1 31 10 15 9 20 -2 25 -23 8 -6 38 17 30 17 -5 19 -2 14 14 -4 11 -2
23 4 27 5 3 10 11 10 17 0 6 -6 6 -15 -2 -19 -15 -34 -5 -17 12 9 9 8 16 -3
28 -19 21 -9 50 16 50 10 0 19 5 19 10 0 6 -6 10 -13 10 -8 0 -13 13 -13 35 0
38 9 44 26 18 9 -15 10 -14 4 7 -4 14 -12 28 -18 32 -6 4 4 8 22 8 32 0 43 14
20 23 -7 3 -3 6 9 6 28 1 27 37 -2 45 -17 5 -18 8 -5 16 10 6 11 10 3 10 -9 0
-10 7 -3 26 13 34 13 34 -9 34 -11 0 -23 4 -26 10 -4 6 1 7 11 3 15 -5 16 -1
10 30 -7 39 8 52 19 17 9 -29 25 -24 25 8 0 15 6 34 13 41 10 11 7 12 -17 7
-25 -6 -28 -5 -17 8 10 12 9 16 -6 25 -22 14 -7 12 192 -25 77 -14 187 -34
245 -44 58 -11 152 -28 210 -39 101 -20 158 -30 460 -87 74 -14 169 -32 210
-39 41 -7 190 -37 330 -65 140 -29 273 -54 295 -56 22 -3 72 -11 112 -19 40
-8 81 -15 92 -15 11 0 26 -6 34 -14 8 -8 24 -12 35 -9 12 3 61 0 109 -6 48 -7
106 -14 128 -17 l40 -5 -35 20 c-34 20 -34 20 -9 21 15 0 32 6 38 14 11 13 6
15 -28 14 -23 0 -44 -5 -47 -10 -4 -7 -9 -6 -13 0 -4 6 -23 13 -44 15 -20 2
-39 6 -43 9 -8 9 -42 -3 -47 -17 -4 -9 -18 -10 -54 -4 -26 4 -67 8 -90 8 -31
1 -46 7 -57 22 -10 15 -21 20 -35 16 -12 -3 -21 -2 -21 3 0 4 -12 7 -27 6 -66
-5 -400 49 -418 68 -8 7 -24 12 -37 9 -26 -4 -231 29 -468 77 -215 43 -235 50
-125 45 90 -4 94 5 10 21 l-40 8 40 6 c22 3 44 4 50 1 5 -3 32 -6 60 -7 146
-4 295 -18 295 -26 0 -6 -20 -8 -45 -6 -25 2 -45 0 -45 -4 0 -5 17 -9 38 -9
20 -1 51 -3 67 -5 39 -4 119 6 111 14 -9 8 -76 32 -106 37 -14 3 -80 12 -147
21 -92 13 -120 20 -113 29 12 15 3 25 -16 18 -8 -3 -11 -10 -7 -17 3 -6 -3 -3
-13 6 -11 10 -36 20 -55 24 -19 3 -45 7 -57 10 -15 3 -21 1 -17 -6 3 -6 -3
-10 -15 -10 -12 0 -19 4 -16 9 3 5 -9 12 -28 15 -19 4 -39 13 -46 21 -8 10
-31 15 -68 15 -54 0 -62 12 -17 23 16 4 15 5 -5 6 -15 0 -31 6 -36 11 -8 8
-19 8 -38 0 -15 -5 -32 -8 -37 -4 -14 8 1 26 17 20 7 -3 16 -1 19 3 3 5 15 7
28 4 18 -4 19 -3 7 6 -8 6 -11 11 -6 11 5 0 17 -6 25 -14 9 -8 37 -17 63 -19
26 -3 52 -8 58 -12 5 -3 10 0 10 9 0 8 6 17 12 19 8 3 8 6 2 6 -16 1 -178 37
-264 59 -45 11 -74 23 -72 30 3 16 -35 15 -41 0 -4 -10 -6 -10 -6 0 -1 6 -8
12 -16 12 -8 0 -15 4 -15 9 0 6 16 7 35 4 24 -4 35 -2 35 6 0 8 6 7 16 -3 8
-9 21 -16 27 -16 7 0 6 4 -3 10 -19 12 44 5 195 -22 61 -11 182 -32 270 -48
182 -32 301 -55 395 -75 113 -24 120 -24 146 -1 18 16 28 40 38 96 8 41 19 76
25 78 5 2 8 9 5 17 -3 7 0 37 6 66 6 30 13 68 16 86 13 76 19 88 45 85 13 -2
26 -6 28 -8 4 -4 -24 -167 -35 -206 -4 -14 -10 -15 -30 -8 -26 10 -32 -3 -13
-30 8 -11 12 -12 16 -2 2 6 8 12 12 12 4 0 0 -41 -9 -92 -21 -110 -15 -133 39
-148 96 -25 497 -104 525 -102 30 2 53 30 60 75 4 23 18 92 31 152 13 61 32
152 41 203 17 91 17 93 -2 112 -15 15 -81 32 -269 70 -137 28 -264 51 -282 52
-33 1 -63 -16 -63 -36 0 -25 -17 -37 -43 -30 -22 5 -27 12 -27 38 0 60 -5 62
-225 105 -88 18 -178 36 -200 41 -22 5 -78 17 -125 26 -47 9 -103 20 -125 25
-22 5 -52 11 -67 12 -44 5 -42 14 4 20 24 3 44 2 46 -4 2 -5 8 -7 13 -3 5 3 9
0 9 -7 0 -6 8 -9 20 -6 11 3 23 1 26 -5 4 -6 22 -8 40 -5 24 4 32 2 28 -5 -5
-7 -2 -8 5 -3 20 12 -1 25 -60 40 l-54 13 52 -1 c45 -1 57 3 85 28 18 17 27
23 21 15 -6 -8 -10 -27 -8 -42 3 -27 -8 -38 -18 -18 -3 6 -4 5 -3 -2 2 -8 16
-12 37 -11 19 1 26 -1 16 -4 -21 -6 -18 -27 5 -31 22 -4 31 28 13 48 -8 9 -12
19 -9 22 9 9 49 -35 46 -49 -2 -7 4 -13 13 -13 9 0 13 4 10 10 -6 10 4 9 100
-11 284 -57 308 -59 330 -26 21 33 75 26 75 -9 0 -37 34 -51 221 -90 198 -40
232 -43 259 -19 11 10 28 15 40 12 11 -3 23 -1 26 4 3 5 -1 9 -8 9 -25 0 -40
17 -34 37 5 15 13 19 37 15 29 -4 30 -6 24 -43 -14 -82 -14 -82 249 -133 199
-39 220 -38 240 19 9 25 16 29 39 27 23 -3 27 -8 27 -37 0 -52 8 -63 58 -79
75 -24 371 -78 392 -71 11 4 24 14 29 24 11 20 81 370 81 404 0 44 -29 56
-236 98 -214 44 -238 43 -250 -6 -3 -14 -13 -25 -23 -25 -13 0 -13 -2 -2 -9
12 -8 12 -21 -2 -93 -9 -45 -22 -109 -28 -140 -11 -61 -14 -63 -51 -49 l-24 9
25 126 c18 94 28 125 38 122 7 -3 13 -1 13 4 0 6 -4 10 -9 10 -6 0 -9 23 -9
50 1 50 -16 79 -49 80 -7 0 -13 4 -13 10 0 5 -3 9 -7 8 -5 -1 -28 2 -53 7 -25
5 -65 9 -90 10 -25 1 -85 9 -133 19 -49 9 -97 14 -107 11 -27 -9 -48 -77 -80
-262 -12 -63 -16 -73 -34 -73 -45 0 -45 9 -15 155 15 77 29 149 29 161 0 31
-31 54 -97 69 -105 25 -316 65 -339 65 -27 0 -64 -43 -64 -74 0 -12 -6 -46
-14 -76 -7 -30 -21 -99 -31 -152 -9 -54 -21 -98 -26 -98 -5 0 -9 7 -9 16 0 12
-6 15 -21 11 -20 -5 -21 -3 -15 34 17 108 28 139 46 139 10 0 22 5 25 10 3 6
-3 10 -15 10 -18 0 -20 5 -15 38 16 113 17 130 6 150 -6 12 -23 25 -36 28 -14
3 -25 13 -25 21 0 13 -9 15 -47 10 -30 -3 -90 4 -166 19 -152 31 -170 31 -196
-2 -12 -15 -21 -33 -21 -40 0 -7 -5 -36 -11 -65 -10 -48 -12 -50 -28 -34 -12
13 -13 19 -3 22 15 6 16 23 2 23 -6 0 -15 -10 -20 -22 -8 -21 -9 -20 -9 9 -1
27 3 32 26 35 14 2 28 8 30 14 2 7 -6 10 -22 7 -28 -6 -33 8 -10 31 17 17 20
30 5 21 -5 -3 -10 1 -10 11 0 9 -10 25 -22 35 -11 11 -16 19 -11 19 6 0 16 -6
22 -14 16 -19 55 -25 75 -10 9 6 26 10 36 7 11 -3 20 -1 20 4 0 16 -47 36 -61
27 -22 -13 -49 -12 -49 3 0 13 -17 17 -52 14 -10 -1 -18 2 -18 8 0 5 -16 8
-35 6 -19 -2 -33 0 -30 5 2 4 -6 5 -20 3 -24 -5 -91 12 -99 25 -7 11 118 -3
234 -26 263 -52 253 -51 287 -37 37 16 103 9 103 -10 0 -21 59 -42 180 -65 63
-11 146 -27 184 -36 61 -13 71 -13 91 0 13 9 26 23 29 33 15 47 69 315 73 365
5 51 3 57 -18 71 -13 8 -87 27 -164 42 -77 14 -166 31 -197 37 -49 9 -61 8
-83 -6 -14 -9 -25 -21 -25 -26 0 -6 -5 -10 -11 -10 -5 0 -8 4 -5 9 4 5 3 11
-1 14 -5 2 -3 2 4 1 6 -2 14 4 17 12 4 11 0 15 -17 13 -34 -4 -69 11 -63 27 4
10 -4 14 -31 14 -53 0 -34 11 30 16 33 3 58 1 62 -6 3 -5 14 -10 23 -10 34 0
-26 30 -65 33 -21 1 -42 5 -48 8 -12 7 -61 20 -95 25 -14 2 -45 8 -70 13 l-45
9 56 -2 c42 -1 62 4 77 17 20 18 21 18 43 -12 12 -17 26 -28 30 -25 5 3 18 0
29 -6 21 -11 293 -67 377 -77 63 -7 89 10 99 62 6 31 7 32 35 22 26 -10 28
-15 24 -47 -9 -62 3 -68 217 -111 216 -43 225 -44 252 -24 18 13 49 142 88
363 17 96 9 101 -227 146 -104 20 -198 36 -207 36 -21 0 -58 -46 -58 -71 0
-22 -1 -23 -34 -8 -20 10 -25 19 -24 46 1 19 -6 41 -15 50 -15 16 -363 93
-418 93 -14 0 -29 3 -33 7 -12 12 -48 14 -40 2 4 -8 0 -8 -15 0 -22 12 -29 31
-11 31 6 0 10 -5 10 -11 0 -5 5 -7 11 -3 18 11 78 13 85 3 9 -14 24 -10 18 5
-3 8 -33 19 -72 26 -37 6 -80 15 -97 20 -16 5 -47 11 -69 15 -21 3 -36 9 -33
11 3 3 42 -2 88 -11 46 -9 133 -25 194 -35 141 -25 146 -22 170 89 12 53 22
78 29 74 6 -4 17 -8 24 -9 21 -4 21 -4 4 -81 -14 -65 -14 -74 1 -96 9 -14 30
-27 49 -31 44 -9 226 -45 313 -61 86 -16 109 -6 125 57 6 24 14 59 19 78 5 19
15 70 22 113 6 43 15 80 19 82 4 2 18 1 32 -3 l25 -7 -23 -114 c-12 -63 -26
-136 -29 -162 -10 -74 0 -80 221 -122 104 -21 198 -37 210 -37 40 0 55 34 86
192 49 254 48 289 -9 301 -133 28 -326 67 -359 71 -47 7 -72 -12 -83 -64 -3
-17 -9 -31 -14 -31 -4 1 -17 1 -30 1 -22 0 -23 3 -19 53 4 57 -5 74 -49 82
-22 5 -121 23 -314 59 -42 8 -77 10 -87 5 -25 -13 -32 -11 -18 6 14 17 60 19
109 5 19 -5 37 -7 40 -5 9 9 -7 16 -50 21 -24 3 -47 10 -50 16 -4 6 -21 11
-38 12 -17 0 -31 4 -31 7 0 3 -6 6 -12 7 -61 6 -109 16 -114 23 -2 5 -18 6
-33 3 -16 -4 -32 -1 -35 5 -10 16 24 14 154 -10 63 -12 121 -28 128 -36 17
-17 23 -17 16 1 -6 17 24 30 40 17 18 -15 58 -10 45 5 -6 7 -19 14 -29 16 -17
3 -17 5 -4 28 l15 25 -7 -25 c-6 -22 -5 -23 10 -11 11 9 16 10 16 2 0 -7 4 -9
10 -6 6 3 10 -3 10 -13 0 -45 29 -58 185 -87 83 -15 177 -33 209 -40 69 -15
101 -7 117 28 7 17 20 24 39 25 23 0 28 -4 28 -24 0 -23 -4 -25 -36 -22 -22 2
-37 -2 -39 -10 -3 -7 1 -10 10 -6 9 3 25 1 36 -6 16 -8 21 -8 21 1 0 7 8 5 20
-6 10 -9 39 -21 62 -26 24 -4 120 -24 213 -43 166 -35 171 -35 195 -18 13 10
28 33 32 51 6 21 13 29 21 24 7 -4 6 0 -2 10 -18 22 -13 27 22 20 28 -5 28 -7
22 -57 -11 -85 -6 -88 243 -138 158 -31 218 -39 230 -31 25 15 38 49 55 137
16 84 8 146 -18 146 -8 0 -22 9 -32 19 -10 11 -30 22 -45 26 -39 10 -35 -2 5
-14 28 -8 29 -9 7 -10 -14 0 -45 4 -70 10 -93 21 -266 52 -290 50 -31 -1 -48
-23 -61 -77 -10 -39 -13 -41 -37 -35 -25 7 -27 11 -27 67 0 57 -1 59 -35 76
-35 17 -274 65 -377 75 -43 5 -57 2 -73 -12 -11 -10 -20 -25 -20 -33 0 -9 -6
-12 -16 -8 -9 3 -22 6 -30 6 -9 0 -14 11 -14 28 0 16 -8 36 -17 44 -10 8 -88
30 -173 49 l-155 34 -1852 3 -1853 2 0 -5760z m7026 3140 c3 -36 9 -69 12 -74
9 -15 30 -140 28 -166 -1 -14 4 -44 11 -68 7 -23 8 -40 3 -37 -6 4 -10 0 -10
-9 0 -8 -5 -16 -10 -18 -6 -2 -8 -26 -4 -65 4 -34 10 -60 15 -58 11 7 22 -32
13 -47 -6 -9 -10 -5 -15 12 -6 22 -7 21 -9 -10 -1 -29 -3 -32 -10 -15 -8 19
-9 19 -9 -2 -1 -12 -4 -28 -7 -37 -3 -9 -1 -16 5 -16 6 0 11 7 11 15 0 8 5 15
10 15 15 0 12 -19 -5 -36 -15 -16 -21 -88 -9 -118 5 -13 9 -14 20 -5 11 9 14
7 14 -9 0 -11 3 -29 6 -39 6 -16 5 -16 -10 2 -16 19 -16 18 -12 -22 2 -23 7
-47 11 -52 3 -6 2 -11 -4 -11 -5 0 -13 -10 -17 -22 -7 -22 -7 -22 -15 -3 -6
15 -8 9 -8 -22 -1 -23 -5 -45 -11 -48 -6 -4 -10 34 -11 107 0 62 0 136 -1 163
-1 109 5 269 9 248 2 -13 9 -23 15 -23 11 0 7 43 -11 120 -10 43 -16 428 -7
419 3 -3 8 -34 12 -69z m6514 -1746 c0 -388 -3 -543 -11 -538 -6 3 -8 17 -4
31 4 18 1 29 -12 38 -15 11 -15 15 -4 29 11 13 24 146 14 146 -12 0 -49 -49
-47 -62 1 -10 -2 -18 -6 -18 -11 0 -16 28 -12 68 4 32 22 46 22 17 0 -20 14
-19 31 1 14 17 22 74 10 74 -3 0 -5 21 -3 47 11 201 10 244 -6 259 -13 13 -13
17 -1 25 15 9 21 59 7 59 -5 0 -4 9 2 20 7 12 10 69 10 138 -3 155 -1 212 5
212 3 0 5 -246 5 -546z m-2523 407 c8 -12 9 -31 3 -55 -5 -23 -4 -38 3 -43 7
-4 4 -9 -8 -13 -22 -8 -27 -53 -9 -95 12 -26 13 -27 14 -7 0 12 3 22 8 22 12
0 36 -44 34 -62 -2 -9 2 -19 7 -23 11 -6 13 2 31 115 17 109 20 123 28 116 8
-8 3 -89 -6 -96 -4 -3 -8 -16 -10 -30 -1 -17 1 -21 7 -11 11 17 26 -3 15 -21
-4 -6 -9 -25 -11 -42 -2 -17 -4 -36 -5 -43 -1 -6 -8 -9 -17 -6 -13 5 -14 3 -3
-8 17 -18 15 -54 -3 -69 -11 -9 -14 -22 -9 -46 3 -19 3 -42 0 -51 -6 -15 -9
-15 -17 -3 -9 12 -9 11 -4 -5 4 -11 9 -38 11 -59 3 -22 7 -43 10 -47 2 -4 0
-10 -5 -13 -5 -4 -6 -18 -2 -34 10 -33 2 -150 -10 -158 -5 -3 -4 -15 2 -26 10
-18 9 -20 -6 -14 -16 6 -17 0 -12 -61 3 -38 10 -87 15 -111 5 -24 6 -45 1 -48
-5 -3 -7 -10 -4 -15 4 -5 7 -27 9 -50 2 -22 8 -45 15 -52 6 -6 11 -16 11 -21
0 -6 -5 -5 -12 2 -7 7 -15 12 -19 12 -6 0 -2 -135 6 -157 2 -6 -2 -17 -10 -23
-10 -9 -11 -18 -3 -41 5 -16 8 -35 5 -43 -3 -7 -1 -19 3 -27 7 -11 10 -10 16
4 10 28 30 20 28 -12 -1 -16 -5 -35 -9 -41 -4 -7 -3 -15 2 -19 14 -9 25 -59
14 -65 -16 -10 -42 24 -35 46 8 27 -4 70 -17 62 -6 -4 -9 -22 -6 -43 2 -20 1
-47 -3 -61 -7 -22 -8 -20 -10 15 -1 22 -4 54 -6 70 -3 29 -14 472 -15 590 0
74 7 125 19 137 11 11 4 48 -10 48 -5 0 -7 4 -4 8 3 5 8 65 10 134 4 92 2 130
-7 143 -11 15 -13 12 -9 -19 2 -21 1 -79 -3 -131 -5 -75 -10 -93 -21 -88 -16
6 -20 69 -5 75 13 4 -14 80 -34 94 -8 6 -15 15 -15 19 0 5 12 -2 27 -16 20
-18 25 -20 20 -6 -4 9 -2 17 3 17 18 0 10 26 -15 50 -24 23 -35 47 -15 35 6
-3 10 1 10 9 0 9 -6 15 -12 14 -10 -2 -13 23 -15 99 -1 84 1 101 13 96 16 -6
19 13 4 22 -5 3 -10 27 -10 52 0 40 2 44 15 33 22 -18 26 -9 15 30 -10 36 -3
61 11 39 6 -10 9 -10 9 -2 0 6 -4 15 -10 18 -12 7 -13 25 -2 25 4 0 12 -8 19
-19z m93 -1627 c0 -8 3 -14 8 -14 4 0 8 -17 8 -38 1 -20 0 -31 -3 -24 -8 20
-20 14 -27 -14 -4 -16 -2 -31 5 -38 9 -8 10 -7 6 6 -4 12 -2 15 9 11 10 -4 12
-9 4 -18 -6 -7 -8 -19 -4 -28 3 -8 1 -18 -5 -22 -15 -9 -14 -28 2 -19 6 4 2
-4 -10 -17 -16 -17 -19 -29 -13 -39 8 -12 10 -10 10 8 0 13 3 21 8 18 4 -2 7
-49 6 -103 -1 -54 3 -106 8 -117 7 -12 7 -21 0 -25 -5 -3 -7 -15 -5 -26 6 -25
4 -94 -3 -117 -3 -10 -1 -18 5 -18 6 0 11 11 11 25 0 14 3 25 8 25 4 0 6 63 5
140 -1 76 2 142 6 145 5 3 5 21 1 41 -6 26 -5 37 5 40 21 9 26 32 9 49 -13 13
-13 15 -1 15 26 0 39 -64 15 -72 -15 -5 -17 -50 -3 -61 6 -6 6 -10 -2 -14 -16
-6 -17 -40 -2 -45 9 -3 8 -10 -1 -28 -9 -18 -10 -25 -1 -28 6 -2 11 -10 11
-18 0 -9 -6 -11 -17 -7 -15 6 -16 4 -6 -8 6 -8 11 -41 11 -74 1 -33 1 -62 2
-65 8 -25 5 -59 -7 -77 -8 -12 -12 -27 -8 -33 4 -7 -1 -7 -13 1 -12 7 -19 16
-16 20 2 4 1 10 -3 12 -13 8 -7 -93 6 -106 6 -6 11 -17 11 -24 0 -7 4 -13 9
-13 5 0 7 20 6 45 -2 25 0 45 4 45 13 0 21 -83 10 -97 -6 -7 -8 -22 -4 -34 5
-14 4 -19 -4 -15 -7 4 -11 -1 -11 -13 0 -11 5 -23 12 -27 8 -5 9 -2 5 9 -7 19
8 23 18 6 4 -6 0 -16 -10 -22 -13 -10 -14 -18 -6 -40 7 -19 7 -27 0 -27 -6 0
-9 -7 -5 -15 3 -8 1 -15 -4 -15 -6 0 -10 -4 -10 -10 0 -5 7 -10 15 -10 8 0 15
-6 15 -14 0 -8 -7 -21 -15 -30 -8 -8 -15 -18 -15 -21 0 -4 7 -5 15 -1 9 3 15
0 15 -9 0 -8 -4 -15 -10 -15 -13 0 -13 -36 1 -61 7 -15 7 -24 -1 -34 -7 -8 -8
-20 -4 -26 9 -15 9 -158 0 -187 -4 -12 -3 -22 2 -22 6 0 12 -7 16 -15 4 -12 2
-13 -13 -5 -11 5 -25 26 -31 45 -6 19 -16 35 -21 35 -14 0 -1 -103 14 -112 9
-6 9 -10 0 -16 -7 -4 -11 -21 -9 -37 2 -17 4 -40 5 -53 1 -14 5 -20 12 -16 6
3 9 28 7 57 -2 41 0 52 13 55 14 2 15 -3 9 -38 -6 -33 -5 -40 6 -36 8 3 14 -1
14 -9 0 -8 -6 -15 -12 -16 -10 0 -10 -2 0 -6 14 -6 17 -83 2 -83 -6 0 -6 -9
-1 -22 5 -13 9 -47 10 -76 1 -46 -2 -53 -17 -50 -11 2 -18 14 -20 36 -2 22 -7
30 -15 25 -9 -5 -9 -3 -1 8 12 16 2 65 -13 62 -13 -3 -14 2 -19 167 -3 83 -10
156 -17 170 -12 24 -20 196 -20 403 1 76 -2 97 -12 93 -14 -5 -28 31 -15 39 4
3 6 15 2 27 -3 13 -1 19 5 15 27 -17 32 99 5 120 -10 7 -14 13 -11 13 4 0 3
17 -2 38 -19 73 -21 148 -4 162 17 14 18 12 15 -102 -2 -92 17 -88 22 5 3 56
0 79 -14 103 -17 29 -17 31 2 47 22 18 25 33 11 42 -5 3 -7 22 -5 43 4 28 3
33 -5 22 -9 -13 -11 -13 -11 3 0 9 5 17 10 17 15 0 12 19 -5 36 -16 17 -21 69
-16 167 1 24 21 22 21 -3 0 -11 5 -20 11 -20 6 0 9 12 7 28 -2 19 -8 26 -20
24 -11 -2 -18 3 -18 13 0 10 7 15 18 13 11 -2 18 4 20 19 4 24 32 21 32 -3z
m2290 -904 c30 -26 39 -25 33 3 -5 22 -5 22 10 2 11 -14 12 -23 5 -33 -6 -7
-12 -42 -12 -78 -1 -61 0 -64 15 -45 16 19 16 19 17 -9 0 -16 -5 -31 -12 -33
-7 -3 -16 -19 -19 -37 -4 -17 -11 -29 -17 -25 -5 3 -10 -3 -10 -15 0 -20 1
-21 25 -3 14 10 28 28 31 40 3 13 10 21 14 18 10 -6 1 -45 -11 -45 -8 0 -39
-58 -43 -82 -1 -7 -5 -19 -10 -26 -12 -19 1 -27 19 -12 19 16 19 10 0 -26 -16
-31 -12 -132 7 -168 9 -16 8 -18 -6 -13 -10 4 -16 1 -17 -8 -3 -31 -4 -35 -12
-36 -25 -2 -30 9 -14 31 19 27 22 44 7 35 -13 -8 -13 1 3 26 10 17 9 22 -5 33
-22 16 -23 27 -3 20 8 -4 15 -2 15 4 0 5 -7 12 -15 16 -11 4 -13 16 -8 53 3
26 10 50 15 51 4 2 8 8 8 13 0 6 -4 7 -10 4 -6 -4 -10 6 -10 22 0 15 -3 39 -7
52 -5 18 -3 22 7 16 9 -6 12 -4 8 6 -3 8 0 23 8 34 22 29 16 43 -6 15 l-19
-25 3 30 c2 17 4 37 5 46 0 9 10 19 21 22 13 3 18 10 14 21 -4 11 -13 14 -30
10 -15 -4 -24 -2 -24 5 0 6 8 11 17 11 9 0 13 3 10 6 -3 4 -2 15 4 25 7 15 6
19 -6 19 -8 0 -15 4 -15 9 0 5 -3 16 -6 25 -8 21 -2 20 26 -4z m-10639 -71 c4
-19 8 -31 9 -26 4 11 7 26 9 37 0 6 8 10 17 10 13 0 15 -9 12 -45 -2 -25 0
-46 4 -47 4 -2 3 -21 -2 -43 -5 -22 -10 -70 -12 -107 -1 -38 -6 -68 -10 -68
-7 0 -11 54 -13 157 0 18 -4 28 -8 24 -11 -11 -11 -34 -3 -101 5 -36 4 -50 -2
-41 -7 9 -9 -8 -6 -52 2 -37 -1 -69 -6 -72 -6 -4 -11 6 -11 22 -1 15 -3 73 -5
127 -1 54 -5 105 -8 112 -3 8 -1 14 5 14 6 0 7 5 4 10 -4 6 -11 7 -17 4 -7 -5
-8 -2 -2 7 9 15 10 19 13 82 1 48 23 45 32 -4z m13409 -339 c9 -20 8 -26 -5
-36 -13 -10 -14 -17 -6 -33 15 -26 14 -31 -5 -31 -9 0 -14 -6 -11 -12 2 -7 9
-12 14 -11 7 1 7 -14 2 -40 -5 -29 -4 -45 4 -52 17 -14 9 -55 -11 -55 -10 0
-13 -3 -7 -8 6 -4 11 -17 12 -29 2 -17 -1 -21 -14 -16 -13 5 -15 2 -9 -18 13
-39 14 -89 2 -89 -6 0 -12 15 -12 33 -1 17 -5 44 -9 60 -5 19 -3 27 5 27 9 0
9 4 3 13 -17 21 -8 99 13 115 18 13 18 14 -3 7 -21 -6 -31 4 -17 18 3 3 8 25
9 49 2 24 8 60 13 81 8 29 7 37 -3 37 -8 0 -17 -21 -23 -52 -9 -48 -10 -50
-11 -16 0 20 -5 40 -11 43 -17 10 -11 25 7 18 12 -5 15 -2 10 10 -11 29 50 17
63 -13z m-2642 -831 c-10 -7 -10 -11 0 -21 17 -17 15 -48 -3 -69 -14 -14 -14
-19 -2 -31 15 -15 12 -78 -4 -78 -5 0 -9 -10 -8 -22 0 -13 3 -17 6 -10 2 6 9
12 14 12 18 0 8 -22 -23 -51 -33 -30 -33 -30 -13 -47 18 -15 20 -26 17 -104
-3 -69 -7 -86 -18 -81 -12 4 -12 1 1 -23 9 -17 11 -32 5 -39 -10 -12 -2 -55
10 -55 14 0 17 23 19 120 1 52 4 97 7 99 2 3 4 -117 4 -267 -1 -233 -3 -270
-16 -265 -10 4 -12 0 -8 -11 3 -9 10 -16 15 -16 12 0 8 -51 -5 -69 -9 -12 -8
-13 2 -7 11 7 13 -11 9 -100 -8 -170 -17 -250 -30 -284 -3 -8 -8 -58 -12 -110
-3 -52 -9 -120 -13 -150 -6 -46 -8 -50 -14 -27 -3 16 -2 44 2 62 4 19 3 38 -2
43 -6 6 -5 17 3 30 10 16 10 26 1 46 -6 14 -7 26 -2 26 5 0 10 15 12 33 3 31
-19 67 -42 67 -17 0 -34 48 -22 62 5 7 10 48 10 91 1 83 9 140 20 133 4 -2 6
35 4 82 -5 129 -3 155 11 164 8 5 6 8 -6 8 -27 0 -20 63 8 72 18 5 18 6 -4 7
-19 1 -22 5 -17 24 3 12 8 65 10 117 2 52 7 104 11 116 6 18 2 22 -25 27 -25
6 -30 11 -25 26 3 11 1 22 -4 25 -5 4 -7 19 -4 34 3 15 6 33 6 40 0 6 5 12 10
12 5 0 4 6 -2 14 -8 10 -9 16 -2 21 6 3 9 26 6 52 -2 26 0 52 6 59 10 12 -13
44 -32 44 -5 0 0 14 11 32 10 17 17 35 14 40 -3 4 4 8 15 8 25 0 28 -26 5 -58
-14 -20 -14 -24 1 -38 27 -27 34 -7 36 96 1 30 5 60 9 65 4 6 10 18 14 29 5
14 2 17 -9 12 -12 -4 -14 0 -9 19 4 15 1 32 -7 42 -11 13 -11 17 -1 20 6 3 12
9 12 15 0 6 8 16 17 23 15 11 15 13 -6 20 -16 5 -26 2 -36 -11 -7 -11 -11 -22
-9 -26 3 -5 0 -8 -5 -8 -20 0 -12 30 14 56 14 14 28 39 32 55 3 16 10 32 14
35 5 3 9 10 9 17 0 6 -15 -6 -34 -28 -32 -37 -34 -37 -29 -12 3 15 9 24 14 21
5 -3 13 5 18 18 5 13 16 30 25 37 9 7 16 17 16 21 0 13 -39 19 -43 6 -3 -8 -8
-8 -18 2 -11 10 -10 12 3 12 24 0 29 13 33 84 2 36 8 74 15 85 6 13 7 21 1 21
-10 0 -9 46 2 57 11 10 8 25 -3 18 -5 -3 -10 -4 -10 -1 0 2 -3 11 -6 20 -4 11
0 16 12 16 11 0 15 3 9 8 -14 9 -17 55 -4 47 5 -4 9 4 9 17 0 19 -2 20 -11 8
-9 -12 -9 -11 -4 5 4 11 10 31 14 45 3 14 7 -155 9 -374 2 -312 -1 -401 -10
-407z m-2343 285 c9 -9 14 -23 10 -31 -3 -11 -1 -13 10 -9 9 3 15 0 15 -9 0
-8 -6 -15 -13 -15 -7 0 -13 -10 -14 -21 -2 -21 -1 -21 12 -3 13 17 14 1 15
-125 l0 -143 -20 23 c-10 13 -19 19 -20 12 0 -6 4 -14 9 -17 4 -3 8 -33 8 -66
0 -33 3 -64 8 -68 4 -4 5 19 3 51 -3 31 -1 57 4 57 4 0 8 -47 8 -105 0 -63 -4
-105 -10 -105 -5 0 -10 -9 -10 -19 0 -11 5 -23 10 -26 6 -4 10 -69 10 -161 0
-108 -3 -153 -11 -149 -6 4 -5 -2 2 -13 9 -15 10 -27 3 -44 -6 -13 -8 -35 -3
-51 9 -33 11 -330 2 -307 -3 8 -9 17 -13 20 -5 3 -10 23 -11 45 -3 30 0 39 9
37 8 -1 12 3 9 10 -2 7 -9 12 -14 11 -5 -1 -9 22 -9 50 0 29 -4 80 -9 115 -5
44 -5 62 3 62 8 0 9 7 1 28 -6 15 -13 85 -15 156 -4 130 -8 151 -25 141 -14
-9 -11 5 4 20 9 8 12 26 9 46 -4 30 -6 31 -18 14 -8 -10 -15 -15 -15 -9 -2 18
-5 29 -12 44 -8 21 -27 93 -27 105 1 6 7 2 14 -8 8 -10 17 -14 20 -9 8 13 -4
43 -14 37 -13 -8 -24 84 -13 108 6 13 8 44 6 70 -4 39 -2 46 10 41 9 -3 20
-19 26 -35 5 -16 12 -29 15 -29 7 0 -12 51 -26 67 -5 7 -7 21 -4 30 6 15 8 15
16 3 14 -22 20 4 17 73 -1 39 2 56 9 53 8 -3 9 6 4 30 -9 37 0 43 25 18z
m-10095 -369 c0 -16 -6 -25 -15 -25 -8 0 -15 -7 -15 -16 0 -23 36 -225 76
-429 20 -99 40 -205 44 -235 5 -30 36 -187 69 -349 34 -161 61 -298 60 -305
-2 -20 -25 77 -49 201 -13 67 -27 120 -31 117 -5 -3 -6 2 -3 10 5 14 -9 91
-97 531 -24 116 -44 227 -47 248 -2 20 -7 37 -11 37 -4 0 -6 17 -4 38 2 28 1
32 -6 17 -5 -11 -6 -24 -3 -29 3 -5 0 -6 -6 -2 -6 3 -13 2 -17 -4 -11 -18 -45
-11 -70 15 -16 15 -25 19 -25 10 0 -8 -3 -16 -8 -18 -4 -3 -7 9 -7 26 0 24 -6
35 -22 42 -20 8 -23 17 -23 62 0 51 1 53 28 52 23 -2 24 -2 5 -6 -20 -4 -23
-11 -23 -48 0 -43 18 -63 43 -48 7 3 9 3 5 -2 -11 -12 22 -62 49 -74 29 -14
59 3 66 36 4 22 -19 53 -40 53 -6 0 -13 11 -15 25 -3 14 -1 25 3 25 5 0 9 -9
9 -21 0 -15 5 -19 16 -15 8 3 13 2 11 -2 -3 -4 2 -13 9 -20 13 -12 14 -10 9
10 -15 69 -14 78 8 79 13 0 16 3 8 6 -11 5 -11 7 0 14 10 6 8 9 -9 9 -13 0
-21 -4 -18 -8 3 -5 -9 -6 -27 -3 -31 4 -31 5 -7 12 14 4 37 7 53 8 22 1 27 -3
27 -24z m15018 -135 c-8 -29 -7 -44 1 -54 6 -7 9 -21 5 -30 -4 -11 -1 -16 10
-16 9 0 16 -4 16 -10 0 -5 -12 -10 -26 -10 -37 0 -87 -38 -81 -61 3 -11 1 -22
-4 -25 -13 -8 -11 -78 3 -92 6 -6 8 -15 4 -19 -4 -4 -11 -2 -15 6 -14 22 -24
-17 -26 -108 -2 -64 1 -88 12 -99 13 -13 16 -13 23 -1 5 7 12 10 16 7 9 -10
-4 -40 -15 -34 -5 4 -13 -23 -16 -59 -6 -52 -4 -67 9 -80 18 -18 22 -70 6 -80
-6 -4 -9 -22 -7 -40 2 -19 -1 -63 -8 -99 -7 -36 -10 -66 -6 -66 3 0 -1 -6 -10
-13 -9 -7 -17 -25 -18 -42 0 -16 -5 -66 -10 -110 -7 -61 -9 -18 -7 178 1 217
3 259 16 267 13 8 13 10 1 10 -12 0 -12 3 -3 12 15 15 16 92 2 83 -5 -3 -10
-16 -10 -27 0 -45 -10 -8 -17 63 -9 99 -9 235 1 281 5 20 5 45 1 55 -11 26 -8
114 4 126 16 16 26 0 11 -18 -7 -9 -10 -18 -6 -22 3 -3 6 -1 6 5 0 7 5 12 11
12 7 0 9 -11 6 -30 -4 -17 -2 -30 3 -30 6 0 10 8 10 18 0 13 2 14 9 3 7 -10
13 -10 31 5 43 36 50 46 50 70 0 25 -15 33 -23 12 -2 -7 -2 1 1 17 2 17 8 32
12 35 4 3 10 18 14 33 4 15 10 25 15 22 5 -2 4 -23 -1 -45z m-11754 -269 c8
-14 22 -41 31 -58 10 -18 21 -33 26 -33 5 0 9 -8 9 -18 0 -12 -24 -34 -62 -60
-35 -23 -97 -65 -138 -93 -89 -60 -99 -66 -83 -49 9 10 9 17 2 26 -13 16 -4
34 17 34 9 0 12 5 8 12 -5 7 -3 8 6 3 10 -6 7 -12 -10 -25 -16 -12 -19 -19
-11 -25 8 -4 21 2 33 15 18 20 19 23 5 37 -14 14 -13 18 8 39 13 13 29 24 36
24 8 0 10 14 7 45 -3 25 -2 45 2 45 24 0 19 -77 -5 -96 -8 -6 -15 -19 -15 -28
0 -10 -4 -14 -10 -11 -5 3 -10 4 -10 1 0 -3 10 -10 21 -17 15 -7 19 -8 15 0
-4 6 -2 20 4 32 9 16 18 20 38 16 32 -6 65 9 56 25 -4 6 -3 8 3 5 11 -7 68 28
68 43 0 5 -4 9 -10 8 -5 -2 -9 -6 -7 -10 1 -5 -3 -8 -9 -8 -6 0 -8 9 -4 21 9
28 -13 80 -34 77 -12 -2 -15 4 -13 24 2 21 -1 26 -13 22 -18 -7 -18 -4 -4 -43
9 -25 14 -29 24 -21 10 9 16 6 25 -10 11 -21 6 -40 -10 -40 -5 0 -6 8 -3 18 6
14 4 15 -9 4 -11 -9 -18 -10 -23 -2 -3 5 -17 10 -31 10 -14 0 -23 4 -20 9 3 5
-1 14 -10 22 -13 10 -16 9 -21 -10 -3 -12 -11 -20 -17 -18 -14 5 -66 -20 -66
-32 0 -5 -9 -11 -20 -14 -11 -3 -19 -11 -18 -18 2 -7 -6 -13 -17 -14 -11 0
-19 -5 -18 -11 1 -7 -5 -11 -14 -10 -23 2 -27 -21 -5 -28 25 -8 25 -35 -1 -28
-17 4 -18 2 -8 -16 16 -31 -12 -19 -34 14 -9 14 -21 22 -28 18 -7 -4 -3 2 8
13 11 11 85 64 165 118 80 53 147 101 148 106 5 13 29 -7 46 -40z m11797 -81
c-6 -3 -14 -28 -17 -56 -3 -27 -8 -56 -11 -64 -3 -8 -5 -44 -4 -80 7 -189 0
-272 -26 -302 -18 -20 -34 -86 -23 -90 5 -2 2 -14 -5 -28 -13 -23 -14 -19 -11
45 4 73 12 105 27 105 5 0 9 10 9 23 0 13 3 27 8 31 13 14 10 96 -5 96 -7 0
-13 5 -13 10 0 6 7 10 15 10 17 0 21 56 5 62 -15 5 -23 94 -11 115 6 11 6 24
0 35 -6 11 -6 18 0 18 5 0 7 9 4 20 -3 11 4 32 17 50 18 25 25 29 36 19 10 -8
11 -15 5 -19z m-14796 -630 c-3 -5 -1 -10 3 -12 10 -3 85 -298 78 -305 -2 -2
-12 30 -22 71 -10 42 -19 74 -21 72 -4 -4 2 -34 52 -271 26 -121 39 -199 30
-180 -13 29 -145 661 -140 674 3 9 3 12 -1 8 -7 -7 -113 440 -113 473 0 8 32
-106 70 -254 37 -148 66 -272 64 -276z m2589 483 c-24 -9 -49 -32 -41 -39 4
-5 12 -2 16 5 5 8 17 11 30 6 29 -9 17 -25 -20 -25 -16 0 -29 -4 -29 -10 0 -5
-5 -10 -11 -10 -6 0 -9 7 -5 15 7 19 1 19 -29 -1 -14 -9 -25 -25 -25 -35 0
-23 7 -24 26 -4 9 8 24 16 35 16 27 2 33 3 46 12 20 13 53 17 53 6 0 -5 -12
-9 -26 -9 -19 0 -25 -4 -20 -15 4 -12 -2 -14 -31 -10 -28 3 -40 0 -55 -17 -10
-11 -18 -18 -18 -13 0 4 -9 -4 -21 -19 -20 -26 -49 -35 -49 -16 0 5 6 7 14 4
10 -4 12 2 8 23 -3 15 -7 22 -9 16 -3 -7 -13 -13 -22 -13 -10 0 -28 -9 -40
-19 -21 -19 -22 -21 -6 -45 10 -14 22 -26 27 -26 6 0 5 7 -2 15 -11 13 -10 14
4 9 10 -4 14 -13 11 -24 -4 -11 1 -20 12 -24 10 -4 19 -2 21 3 2 6 8 9 13 5 5
-3 9 1 9 8 0 9 3 9 10 -2 6 -10 5 -17 -5 -20 -11 -4 -11 -8 -1 -21 10 -15 14
-15 30 -3 16 11 17 16 6 29 -15 18 0 21 18 3 9 -9 18 -7 39 9 16 12 27 27 25
33 -2 8 3 10 12 7 22 -9 84 33 92 61 3 12 10 22 16 22 5 0 6 -4 3 -10 -7 -12
-3 -12 19 -4 9 3 16 10 16 16 0 5 -5 6 -12 2 -6 -4 -8 -3 -4 4 7 12 46 12 46
0 0 -4 -15 -15 -32 -24 -18 -9 -35 -20 -38 -23 -3 -4 -30 -23 -60 -43 -30 -20
-77 -52 -105 -72 -31 -22 -56 -34 -67 -30 -14 4 -16 1 -11 -12 5 -13 3 -16
-10 -11 -10 4 -14 2 -11 -6 7 -19 -72 -60 -94 -48 -11 6 -23 5 -33 -3 -14 -9
-14 -13 -3 -24 12 -11 15 -10 20 2 3 9 11 16 16 16 16 0 -12 -30 -43 -46 -35
-17 -39 -18 -39 0 0 9 7 12 23 9 19 -5 19 -2 -8 20 -16 14 -27 29 -22 33 4 4
7 2 7 -4 0 -7 5 -12 11 -12 6 0 9 6 6 13 -4 11 7 13 50 11 38 -2 60 1 70 11 8
8 10 15 4 15 -6 0 -11 9 -11 21 0 14 5 19 14 16 18 -7 31 22 16 37 -7 7 -10 4
-10 -9 0 -15 -3 -16 -12 -7 -19 19 -46 14 -50 -10 -2 -12 -9 -24 -17 -26 -10
-3 -12 0 -7 13 5 13 2 16 -9 11 -10 -4 -19 3 -27 19 -10 23 -12 23 -24 7 -18
-23 -17 -32 1 -32 9 0 15 -9 15 -22 -1 -22 -1 -23 -15 -4 -8 11 -15 15 -15 10
0 -6 -16 -10 -35 -10 -34 0 -49 19 -22 29 8 4 8 6 0 6 -6 1 -19 -13 -27 -31
-18 -35 -19 -39 -8 -36 21 4 61 -16 70 -37 9 -20 9 -23 -3 -18 -8 3 -15 9 -15
14 0 5 -5 9 -12 9 -6 0 -4 -7 5 -18 10 -10 17 -27 17 -37 0 -18 0 -18 13 -1
13 18 14 18 21 1 3 -10 5 -19 4 -20 -3 -2 -56 -38 -161 -107 l-41 -26 -28 36
c-15 20 -28 41 -28 45 0 5 -12 24 -26 42 -31 41 -34 37 86 117 108 73 272 185
285 195 9 7 94 66 205 141 25 17 47 28 50 25 3 -3 0 -8 -6 -10z m4686 -574
c663 -77 1183 -626 1216 -1286 17 -343 -77 -650 -278 -910 -26 -35 -48 -66
-48 -69 0 -4 18 -26 40 -50 22 -24 40 -48 40 -54 0 -35 -65 -110 -94 -110 -6
0 -4 5 4 10 13 8 13 10 -2 10 -10 0 -22 9 -28 20 -6 11 -8 20 -5 20 4 0 -8 18
-25 40 -32 41 -50 88 -54 146 -1 17 -13 42 -25 55 -46 49 -45 65 2 26 25 -20
49 -37 54 -37 4 0 21 -11 37 -25 30 -26 30 -26 50 -6 22 23 29 62 12 74 -7 6
-6 7 4 4 8 -2 14 -13 13 -23 -1 -15 4 -12 23 11 26 33 31 50 12 39 -10 -6 -10
-4 0 7 6 7 12 26 12 41 0 16 8 33 19 39 10 7 17 19 15 28 -3 9 2 27 10 41 33
58 68 148 65 167 -4 20 2 33 15 33 12 0 14 20 11 113 l-4 112 13 -85 13 -85 3
140 c2 77 2 147 1 155 -2 8 -5 32 -8 53 -3 20 -9 37 -13 37 -4 0 -13 23 -20
50 -7 28 -16 50 -21 50 -5 0 -9 17 -9 38 0 21 -4 42 -10 48 -5 5 -11 30 -12
54 -1 49 -15 80 -36 80 -8 0 -11 10 -7 31 4 19 2 28 -5 24 -6 -4 -10 9 -10 35
0 26 -5 43 -15 46 -8 3 -17 14 -20 23 -3 10 -13 26 -23 37 -9 10 -25 36 -35
57 -9 21 -22 35 -27 32 -6 -4 -15 7 -21 24 -7 20 -18 31 -30 31 -10 0 -19 5
-19 12 0 14 -128 136 -135 129 -3 -2 -15 5 -28 16 -12 11 -32 24 -44 28 -13 3
-23 13 -23 21 0 15 -7 17 -56 14 -18 -1 -35 3 -38 9 -4 5 -28 13 -54 16 -26 4
-57 11 -70 17 -12 7 -37 12 -56 12 -19 1 -32 5 -29 12 2 6 -8 16 -22 22 -37
17 -44 15 -16 -4 21 -15 22 -18 6 -26 -9 -6 -19 -7 -22 -4 -4 3 0 6 7 6 9 0 7
5 -5 14 -11 8 -24 12 -28 9 -5 -3 -3 -9 4 -14 10 -6 5 -9 -14 -9 -16 0 -26 4
-22 10 3 6 -1 10 -9 10 -9 0 -16 -4 -16 -9 0 -11 22 -20 69 -27 20 -3 39 -11
42 -16 4 -6 12 -7 19 -3 8 5 11 4 7 -2 -8 -12 61 -46 75 -37 7 4 8 2 4 -4 -4
-7 -3 -12 1 -12 5 0 32 -16 62 -35 29 -19 57 -32 62 -29 5 3 8 2 7 -3 -2 -5
30 -40 71 -78 91 -86 166 -185 220 -293 55 -110 52 -118 -5 -12 -25 47 -70
118 -101 158 -66 87 -192 204 -211 197 -8 -3 -10 0 -6 7 5 8 2 9 -10 5 -11 -5
-15 -3 -10 5 5 8 2 9 -10 5 -9 -4 -15 -3 -12 2 9 13 -17 30 -39 27 -11 -2 -19
-9 -17 -15 2 -9 -3 -9 -18 -1 -24 13 -27 22 -3 13 11 -4 14 -3 9 6 -5 7 -19
16 -33 22 -13 5 -22 13 -18 18 3 5 1 12 -4 16 -6 3 -8 -3 -6 -15 2 -11 0 -20
-6 -20 -5 0 -9 6 -9 13 0 9 -2 9 -8 -1 -5 -8 -16 -10 -27 -6 -12 5 -16 4 -12
-3 5 -7 0 -9 -14 -6 -11 3 -16 9 -11 12 5 3 9 14 9 25 0 17 -1 17 -12 2 -13
-16 -31 -23 -21 -7 6 9 -30 24 -53 21 -7 -1 -11 3 -7 8 5 9 -14 9 -54 -2 -14
-3 -61 -2 -105 3 l-80 10 72 -3 c60 -3 75 0 89 15 16 18 15 18 -17 9 -19 -6
-45 -10 -59 -9 -23 0 -23 1 -5 9 36 15 -297 0 -338 -16 -20 -8 -41 -13 -45
-12 -14 3 -71 -13 -111 -33 -22 -10 -45 -19 -51 -19 -5 0 -10 -4 -10 -10 0 -5
-6 -10 -13 -10 -14 0 -120 -68 -157 -101 -14 -12 -56 -52 -95 -88 -38 -36 -54
-48 -35 -27 62 69 144 147 183 172 21 14 35 29 32 33 -2 5 2 8 11 7 9 0 22 9
30 20 21 31 -2 37 -46 13 -19 -10 -43 -21 -52 -25 -10 -3 -15 -11 -11 -18 3
-6 3 -8 -2 -4 -9 8 -85 -31 -85 -44 0 -4 -5 -8 -12 -8 -6 0 -22 -9 -34 -21
-12 -11 -35 -28 -52 -37 -34 -19 -112 -89 -135 -122 -8 -11 -35 -43 -61 -70
-25 -27 -46 -52 -46 -56 0 -4 -12 -23 -27 -42 -14 -19 -42 -67 -60 -106 -19
-39 -38 -79 -43 -88 -6 -10 -10 -25 -10 -33 0 -8 -4 -15 -9 -15 -5 0 -28 -37
-51 -82 -24 -46 -47 -84 -52 -86 -4 -2 -8 -14 -8 -26 0 -13 -5 -38 -12 -57
l-12 -34 -7 30 -7 30 -1 -30 c0 -16 4 -70 10 -120 15 -127 19 -206 9 -175 -26
86 -53 337 -44 421 25 237 57 357 144 534 66 136 158 261 276 375 119 114 220
185 357 250 248 118 491 159 757 129z m-4496 -221 c18 -26 21 -74 5 -84 -6 -3
-9 -14 -6 -24 4 -15 -2 -17 -42 -14 -72 4 -105 66 -65 122 21 31 87 31 108 0z
m4541 -243 c137 -36 217 -73 342 -157 185 -124 289 -281 354 -535 18 -70 22
-114 22 -213 -2 -183 -41 -318 -139 -470 -184 -287 -471 -445 -804 -443 -248
2 -442 91 -645 297 -109 110 -150 178 -201 333 -118 359 -44 685 212 935 154
150 293 227 479 264 88 17 296 11 380 -11z m-3624 -93 c-18 -33 -13 -46 20
-61 l31 -14 -49 -31 c-26 -17 -52 -36 -58 -41 -18 -20 -163 -115 -174 -115 -6
0 -11 5 -11 10 0 5 3 9 8 8 4 -1 18 4 31 11 16 9 20 16 13 23 -8 8 -6 15 4 25
12 13 10 19 -18 46 -19 18 -34 27 -36 20 -4 -14 -42 15 -42 31 0 6 5 5 12 -2
17 -17 29 -15 22 3 -4 8 -1 15 6 15 6 0 8 5 5 10 -4 6 -11 8 -16 5 -5 -4 -9
-2 -9 4 0 6 9 15 20 21 16 9 19 8 13 -6 -5 -14 -2 -16 15 -12 15 4 25 0 32
-12 15 -27 12 -37 -4 -15 -8 11 -19 16 -30 12 -22 -9 -20 -38 4 -44 11 -3 18
-9 15 -13 -3 -5 -1 -11 4 -14 5 -3 11 1 15 9 3 8 12 15 21 15 19 0 20 36 0 44
-8 3 -15 13 -15 23 0 11 3 14 8 7 4 -7 19 -12 34 -12 20 0 27 6 31 27 3 14 1
31 -4 37 -6 8 -4 14 5 17 10 4 13 1 10 -8 -3 -7 4 -18 15 -24 27 -15 34 -14
27 4 -4 11 0 15 12 13 12 -2 16 3 14 17 -3 19 -2 19 13 4 13 -13 15 -21 6 -37z"/>
<path d="M3452 2739 c-23 -17 -40 -34 -37 -40 3 -5 -2 -6 -11 -2 -14 5 -16 2
-10 -20 4 -16 2 -27 -4 -27 -5 0 -10 7 -10 15 0 8 -4 15 -10 15 -17 0 -11 -27
8 -36 9 -4 20 -7 23 -6 3 0 3 -12 1 -29 -3 -17 0 -29 7 -29 6 0 11 6 11 13 0
7 17 13 46 14 26 1 50 7 54 14 4 6 13 8 19 5 7 -5 10 0 8 13 -4 26 -47 81 -47
61 0 -12 -2 -12 -9 -2 -4 8 -11 13 -15 13 -18 -3 -26 0 -26 9 0 6 5 10 10 10
6 0 20 9 32 20 32 30 9 23 -40 -11z"/>
<path d="M8580 2464 c14 -3 52 -9 85 -16 33 -6 67 -12 75 -12 9 -1 22 -6 29
-10 8 -5 28 -9 45 -8 23 1 27 -2 16 -10 -12 -8 -12 -9 3 -4 9 3 17 1 17 -4 0
-5 7 -7 15 -4 9 4 15 0 15 -9 0 -8 9 -17 20 -20 11 -3 20 -1 20 4 0 5 -8 9
-17 10 -11 0 -13 3 -6 6 7 2 23 -3 35 -11 15 -11 18 -16 8 -17 -8 0 -4 -5 10
-10 17 -7 26 -7 28 0 2 6 8 11 13 11 4 0 5 -8 2 -17 -5 -12 -2 -15 10 -10 10
4 17 2 17 -5 0 -7 4 -7 13 0 10 8 13 6 14 -9 3 -32 21 -47 48 -41 18 3 25 0
23 -9 -2 -8 15 -23 38 -35 23 -11 52 -30 65 -43 13 -12 34 -24 46 -27 13 -4
21 -10 18 -14 -3 -4 6 -19 20 -31 30 -29 32 -39 5 -32 -19 5 -19 4 -5 -23 8
-16 15 -35 15 -42 0 -9 7 -11 20 -7 11 4 20 2 20 -4 0 -6 -4 -11 -10 -11 -5 0
-10 -5 -10 -11 0 -6 6 -9 14 -6 16 6 60 -37 75 -73 8 -21 10 -22 10 -5 1 31
58 28 64 -2 3 -15 -1 -23 -9 -23 -20 0 -17 -28 6 -52 l20 -22 0 22 c0 20 3 21
20 12 11 -6 20 -17 20 -25 0 -13 19 -20 44 -16 5 1 6 -5 3 -13 -5 -13 23 -49
34 -44 3 2 -4 -5 -15 -15 -10 -10 -16 -21 -12 -24 4 -4 11 -2 15 6 6 9 14 3
30 -23 12 -20 20 -40 16 -45 -3 -5 4 -25 15 -43 11 -18 20 -39 20 -46 0 -7 7
-20 15 -28 8 -9 15 -26 15 -39 0 -13 6 -30 14 -37 7 -8 12 -28 11 -45 -1 -24
2 -30 13 -25 13 5 13 2 -1 -18 -9 -14 -17 -29 -17 -35 1 -5 8 1 16 15 l15 25
-5 -32 c-3 -18 -1 -35 4 -38 6 -3 10 -16 9 -28 0 -21 -1 -21 -8 -2 -5 12 -7
-1 -5 -35 3 -70 5 -73 15 -30 4 21 6 -26 5 -115 -3 -120 -1 -139 6 -95 12 70
2 292 -17 390 -23 115 -56 220 -68 213 -6 -3 -7 -2 -4 4 8 13 -23 94 -34 87
-5 -3 -7 1 -4 8 3 7 -2 24 -10 38 -7 14 -21 40 -29 58 -48 103 -213 296 -340
396 -95 77 -218 151 -230 139 -3 -4 -6 -1 -6 5 0 11 -171 81 -248 102 -69 18
-204 40 -237 39 -26 -2 -27 -2 -5 -5z"/>
<path d="M8325 2014 c-297 -58 -513 -223 -649 -492 -101 -200 -113 -466 -31
-692 23 -65 78 -161 114 -200 36 -39 40 -27 11 30 -11 22 -17 40 -13 40 5 0 2
4 -5 9 -12 7 -11 11 1 22 12 12 12 18 0 46 -21 52 -9 39 38 -39 43 -73 183
-225 229 -248 14 -7 6 4 -20 26 -58 51 -97 92 -123 129 -11 17 4 4 33 -28 104
-115 270 -206 423 -233 121 -21 185 -17 350 20 117 27 238 98 342 201 98 98
148 177 193 305 23 66 26 91 26 215 1 151 -12 222 -59 322 -26 54 -32 79 -14
53 9 -13 10 -13 6 0 -2 8 -9 15 -15 15 -6 0 -19 11 -29 25 l-17 25 23 -20 23
-20 -13 28 c-7 16 -18 26 -25 23 -8 -3 -16 0 -20 6 -5 7 -2 8 6 3 8 -5 11 -3
8 6 -3 8 -10 14 -16 14 -5 0 -14 4 -19 9 -5 5 -3 6 5 2 25 -15 10 14 -34 62
-102 115 -306 231 -444 255 l-25 4 25 1 c31 2 79 -10 148 -36 29 -11 55 -21
57 -21 55 -8 212 -115 299 -205 22 -23 43 -40 48 -38 4 1 8 -3 8 -9 0 -7 8
-18 18 -26 9 -8 10 -11 2 -7 -8 4 1 -8 20 -28 19 -19 36 -34 38 -33 8 7 -55
116 -98 170 -116 146 -274 246 -469 296 -96 25 -262 31 -356 13z"/>
<path d="M3867 11514 c-15 -16 -4 -22 53 -28 33 -4 62 -11 65 -16 8 -13 51
-13 76 0 24 13 55 -1 64 -30 3 -11 11 -20 17 -20 6 0 5 6 -3 16 -10 13 -10 17
1 24 8 5 19 6 24 2 6 -3 23 -5 38 -4 15 1 28 -2 28 -7 0 -5 11 -11 25 -13 13
-3 22 -1 19 3 -3 5 1 9 8 10 7 0 2 5 -12 11 l-25 11 23 5 c13 2 32 -4 42 -13
10 -9 24 -15 31 -13 17 6 -17 38 -42 39 -27 2 -33 3 -46 12 -6 4 -18 4 -27 1
-14 -5 -14 -9 -4 -22 11 -13 10 -15 -5 -9 -10 4 -23 7 -29 7 -7 0 -6 5 1 14 7
8 8 16 4 19 -13 8 -318 9 -326 1z"/>
<path d="M4400 11512 c0 -5 25 -15 54 -22 30 -7 57 -19 60 -26 3 -8 17 -14 31
-14 22 0 24 3 16 19 -9 16 -8 18 9 14 11 -3 23 -9 25 -14 3 -4 13 -5 21 -2 9
3 19 2 23 -3 15 -22 51 -33 73 -24 13 5 18 9 12 9 -5 1 -19 8 -30 16 -18 13
-17 14 15 10 19 -2 39 -9 44 -14 14 -14 30 -14 22 -1 -12 20 12 9 35 -15 13
-14 33 -25 44 -25 37 0 101 -28 104 -44 2 -11 14 -16 35 -15 l32 0 -32 16
c-34 17 -43 32 -20 34 14 1 -50 20 -75 22 -13 1 -16 7 -13 22 6 18 5 19 -5 2
-9 -14 -15 -16 -26 -6 -7 6 -20 9 -28 6 -10 -4 -13 -1 -9 9 3 7 1 14 -3 15
-30 2 -59 11 -70 20 -7 6 -18 8 -25 4 -6 -4 -15 -2 -19 5 -11 19 -42 -13 -34
-34 3 -9 1 -16 -4 -16 -18 0 -23 19 -12 40 10 18 8 20 -19 20 -16 0 -33 -5
-36 -10 -4 -7 -12 -7 -25 0 -23 12 -170 13 -170 2z"/>
<path d="M4926 11514 c6 -3 58 -13 115 -23 57 -11 187 -36 289 -56 102 -20
196 -38 210 -40 14 -2 81 -15 150 -29 68 -14 127 -22 131 -18 3 4 11 39 19 77
7 39 17 76 23 83 7 9 -88 12 -469 11 -264 0 -474 -3 -468 -5z"/>
<path d="M6073 11461 l-32 -18 27 -22 c14 -11 39 -21 55 -21 24 0 28 -3 24
-20 -3 -13 0 -20 8 -20 7 0 19 -2 27 -3 7 -2 10 -2 6 0 -5 3 -4 13 2 22 5 10
6 21 3 25 -3 3 1 6 10 6 8 0 17 -3 19 -7 5 -12 70 -44 76 -38 3 3 -1 6 -9 6
-8 1 0 5 16 9 l30 7 -32 14 c-18 7 -33 17 -33 22 0 10 71 6 85 -4 6 -5 20 -8
30 -7 57 1 275 -15 308 -23 21 -6 52 -7 68 -4 15 4 34 3 41 -2 18 -11 109 -10
105 1 -3 9 -20 12 -132 20 -33 3 -103 10 -155 16 -52 6 -133 15 -180 20 -80 8
-104 11 -205 25 -102 15 -130 14 -162 -4z"/>
<path d="M5276 11172 c-14 -17 -55 -172 -56 -214 0 -9 12 -31 28 -49 25 -30
18 -32 -17 -5 -16 12 -101 15 -94 2 3 -4 -1 -13 -8 -18 -11 -8 -10 -9 4 -4 9
3 17 1 17 -4 0 -6 5 -10 11 -10 6 0 9 6 6 13 -4 10 3 12 24 9 16 -2 29 -9 29
-14 0 -5 4 -6 10 -3 5 3 18 1 27 -4 13 -8 14 -10 4 -11 -11 0 -12 -3 -4 -11 8
-8 17 -7 34 2 17 9 24 9 27 0 4 -13 38 -15 46 -2 4 5 -6 14 -21 19 -42 15 -13
14 69 -4 224 -47 292 -53 307 -27 5 10 13 14 17 10 5 -5 3 -12 -4 -16 -10 -6
-6 -12 13 -25 14 -9 30 -14 36 -11 5 4 28 -1 52 -10 23 -8 125 -33 226 -55
199 -42 220 -41 240 9 6 14 18 64 25 111 22 130 18 133 -259 190 -33 7 -74 16
-91 21 -16 5 -51 10 -77 11 -27 1 -49 8 -51 15 -3 7 -19 13 -36 13 -20 0 -30
5 -30 15 0 10 -9 15 -27 14 -16 0 -21 -3 -13 -6 8 -3 25 -15 37 -26 12 -11 28
-17 36 -14 26 10 36 -12 22 -47 -7 -17 -18 -65 -25 -106 -7 -41 -16 -78 -20
-83 -3 -4 -17 4 -29 17 -23 24 -23 27 -10 93 23 116 14 145 -44 157 -17 3 -63
13 -102 21 -108 23 -278 55 -296 55 -9 0 -23 -8 -33 -18z"/>
<path d="M4422 10970 c-11 -11 -23 -33 -27 -50 -6 -25 -10 -29 -30 -24 -12 3
-26 1 -29 -4 -3 -5 5 -13 19 -16 31 -8 31 -11 0 -166 -31 -159 -32 -185 -2
-204 21 -13 362 -86 404 -86 42 0 54 23 79 151 50 253 42 229 75 229 35 0 35
-2 12 -121 -16 -82 -18 -87 -41 -86 -14 1 -27 -4 -30 -12 -3 -10 2 -13 22 -9
30 6 30 6 15 -80 -17 -96 -9 -101 219 -146 101 -20 193 -36 206 -36 37 0 51
28 75 150 12 63 25 126 29 140 3 14 7 30 7 35 1 6 5 31 9 57 12 68 2 95 -36
106 -47 14 -160 39 -258 57 -47 8 -96 18 -110 21 -29 6 -80 -27 -80 -53 0 -11
-6 -14 -22 -9 -13 3 -26 6 -30 6 -5 0 -8 13 -8 28 0 47 -29 63 -162 87 -68 13
-145 27 -173 33 -104 22 -111 22 -133 2z"/>
<path d="M6298 10553 c-25 -6 -22 -31 5 -38 12 -3 40 -10 62 -16 22 -6 55 -17
73 -25 18 -8 40 -14 50 -14 17 0 90 -23 127 -39 18 -8 51 -18 95 -27 8 -2 34
-6 57 -8 24 -3 48 -8 54 -12 7 -4 10 -1 7 7 -3 8 -15 15 -29 17 -27 3 -153 39
-184 52 -24 10 -149 46 -189 55 -16 3 -30 14 -33 25 -3 13 -14 20 -28 20 -13
0 -29 2 -37 4 -7 2 -21 2 -30 -1z"/>
<path d="M4033 10463 c-11 -11 -25 -48 -32 -84 -24 -119 -26 -123 -52 -130
-23 -7 -23 -7 -1 -8 26 -1 26 2 7 -98 -8 -43 -15 -86 -15 -95 0 -31 35 -55 96
-66 33 -6 113 -23 179 -37 143 -30 176 -31 199 -7 17 19 86 345 86 407 0 43
-24 62 -95 74 -33 6 -103 20 -155 31 -150 33 -194 36 -217 13z"/>
<path d="M4586 10352 c-10 -12 -30 -86 -51 -197 -20 -98 -38 -182 -41 -187 -9
-15 16 -77 34 -82 42 -13 343 -75 373 -77 19 -2 44 3 56 9 25 14 24 11 53 167
12 61 27 143 35 183 16 81 8 119 -29 127 -85 21 -365 75 -387 75 -14 0 -33 -8
-43 -18z"/>
<path d="M5142 10242 c-12 -12 -27 -66 -46 -157 -15 -77 -32 -163 -38 -191
-13 -61 -5 -99 21 -114 11 -5 106 -28 212 -50 l193 -41 27 20 c23 17 33 19 58
10 16 -6 37 -21 46 -35 10 -15 29 -26 54 -30 21 -3 43 -9 49 -13 8 -4 3 -45
-14 -131 -14 -69 -30 -150 -35 -180 -5 -30 -15 -86 -23 -124 -16 -75 -10 -108
24 -126 21 -11 219 -50 257 -50 40 0 57 33 77 144 18 99 20 106 42 106 13 0
24 5 24 11 0 6 -9 9 -20 6 -23 -6 -25 8 -11 63 5 19 17 79 27 133 10 57 22 97
29 97 6 0 35 -7 64 -16 29 -8 60 -13 69 -11 9 2 -18 14 -61 28 -73 22 -78 26
-74 49 2 14 19 105 37 203 28 145 32 181 22 197 -12 19 -9 19 83 15 52 -3 95
-1 95 4 0 9 -171 26 -220 22 -14 -1 -79 10 -145 25 -220 48 -243 50 -266 27
-21 -21 -40 -96 -74 -288 -10 -55 -21 -104 -25 -108 -4 -4 -19 -5 -34 -1 -23
5 -26 11 -22 33 59 300 69 362 58 385 -9 20 -24 27 -84 40 -40 8 -127 27 -192
41 -142 30 -160 31 -184 7z"/>
<path d="M3503 9987 c-11 -14 -25 -57 -32 -96 -11 -61 -16 -71 -34 -72 -17 -1
-18 -2 -4 -6 22 -6 21 -18 -3 -137 -12 -54 -18 -107 -15 -118 8 -23 50 -42
125 -57 30 -6 110 -22 178 -36 121 -24 160 -23 176 4 7 11 86 386 86 407 0 32
-38 57 -106 70 -38 8 -116 24 -174 35 -170 34 -174 34 -197 6z"/>
<path d="M4063 9878 c-16 -17 -30 -68 -57 -208 -20 -102 -36 -192 -36 -201 0
-26 32 -60 60 -64 14 -1 93 -17 176 -33 107 -22 175 -30 233 -29 69 2 85 -1
96 -16 16 -22 72 -38 275 -77 l164 -32 21 24 c17 20 28 24 53 20 22 -3 32 -10
32 -21 0 -27 37 -59 75 -67 19 -3 35 -10 35 -15 0 -5 26 -16 57 -25 32 -9 65
-20 73 -25 30 -15 152 -51 157 -45 7 7 -59 34 -124 52 -28 7 -67 20 -85 28
-31 14 -32 15 -5 11 15 -2 77 -14 137 -26 149 -31 163 -23 184 102 5 30 12 38
39 47 32 10 32 10 5 11 -33 1 -33 -2 -7 135 11 60 18 119 15 132 -10 37 -18
40 -216 79 -41 8 -93 19 -115 25 -71 17 -123 13 -139 -12 -8 -13 -29 -97 -47
-188 -17 -91 -33 -171 -35 -178 -2 -8 -13 -10 -31 -6 -16 4 -29 8 -31 9 -2 2
13 86 33 189 27 138 33 191 25 205 -13 25 -44 34 -210 66 -74 14 -151 29 -170
33 -56 12 -80 4 -95 -31 -14 -34 -75 -333 -75 -368 0 -19 -4 -21 -32 -15 -41
8 -41 9 -33 46 6 27 11 31 31 27 14 -2 27 0 30 4 3 5 -6 9 -20 9 -14 0 -26 6
-26 13 0 6 12 75 26 153 15 78 24 152 21 166 -8 29 -31 39 -127 57 -30 6 -109
22 -175 36 -146 30 -137 30 -162 3z"/>
<path d="M3722 8810 c-29 -12 -39 -36 -61 -145 -18 -87 -19 -90 -45 -88 -14 1
-26 -2 -26 -7 0 -6 11 -10 25 -10 21 0 25 -4 20 -22 -26 -115 -43 -232 -35
-252 11 -30 36 -39 230 -76 174 -34 214 -38 234 -21 16 14 72 -2 100 -28 20
-19 87 -36 323 -82 76 -15 108 -17 123 -9 20 11 42 75 55 158 7 45 26 62 49
43 7 -6 16 -7 20 -3 8 7 0 -50 -15 -108 -13 -49 -11 -93 4 -113 8 -12 68 -29
207 -57 107 -22 202 -40 212 -40 10 0 28 10 40 22 13 13 33 22 48 20 l25 -2
-25 12 c-14 7 -26 13 -28 14 -3 1 28 146 32 151 6 7 56 -24 56 -34 0 -6 -7
-47 -15 -90 -14 -74 -14 -79 3 -103 11 -14 34 -28 53 -32 84 -18 351 -68 363
-68 36 0 56 36 77 137 l21 101 37 -5 c33 -5 41 5 9 11 -23 5 -53 19 -69 33
-14 12 -313 80 -400 90 -30 4 -40 0 -58 -22 -11 -15 -21 -23 -21 -17 0 7 -11
14 -25 18 -14 3 -25 11 -25 17 0 6 12 69 26 140 l27 129 -22 21 c-17 17 -65
31 -224 63 l-202 42 -22 -20 c-12 -11 -25 -33 -28 -49 -5 -20 -11 -26 -23 -22
-14 4 -14 3 -3 -5 13 -9 13 -23 -3 -105 l-18 -95 -33 -4 c-25 -3 -35 0 -38 13
-8 29 -51 49 -153 68 -54 11 -133 26 -174 34 -99 20 -224 31 -192 17 13 -5 29
-7 34 -3 8 4 9 -2 4 -18 -11 -35 -23 -86 -36 -151 -12 -59 -25 -70 -59 -49
-12 8 -10 30 12 148 15 76 31 139 36 141 6 2 8 9 5 17 -3 7 2 50 11 95 17 82
17 82 -5 105 -20 21 -69 38 -145 50 -62 11 -245 46 -257 49 -7 3 -23 1 -36 -4z"/>
<path d="M3190 7935 c0 -10 5 -15 14 -12 7 3 38 -1 67 -8 l54 -14 -67 3 c-52
2 -68 0 -68 -11 0 -11 30 -18 61 -15 3 1 37 -3 75 -9 65 -8 90 -13 207 -39 26
-6 69 -13 95 -16 26 -3 51 -9 56 -14 11 -11 -111 -5 -222 11 -22 4 -42 -2 -42
-12 0 -6 7 -9 15 -6 8 4 39 0 70 -8 30 -8 97 -18 148 -21 50 -4 101 -10 112
-14 11 -4 63 -8 115 -9 52 -1 98 -5 102 -7 19 -12 88 -5 103 10 17 17 35 21
35 8 0 -4 -5 -13 -11 -19 -7 -7 -1 -14 22 -22 39 -13 49 -14 49 -2 0 5 -10 11
-21 14 -14 4 -20 11 -16 21 5 11 -2 18 -21 22 -15 3 -41 10 -59 14 -31 8 -62
-8 -47 -23 7 -7 -76 2 -88 9 -5 3 -6 9 -3 14 3 5 -4 12 -17 14 -46 10 -275 48
-354 60 -45 6 -87 16 -95 22 -8 6 -23 10 -34 8 -29 -6 -95 6 -95 17 0 5 9 9
20 9 11 0 20 5 20 10 0 6 -24 11 -52 11 -65 2 -88 5 -110 14 -13 5 -18 2 -18
-10z"/>
<path d="M4410 7491 c0 -13 40 -19 165 -25 55 -3 129 -10 165 -16 87 -13 88
-13 107 9 9 11 20 18 25 15 5 -3 3 -13 -4 -21 -11 -14 -10 -15 12 -7 28 9 120
13 135 5 33 -17 218 -42 340 -45 66 -2 147 -7 180 -12 33 -4 63 -7 68 -6 4 1
38 -5 75 -13 69 -15 107 -21 202 -30 l55 -5 -55 14 c-30 7 -107 21 -170 31
-63 9 -137 20 -165 25 -27 5 -104 12 -170 14 -170 7 -243 16 -295 34 -25 9
-74 17 -110 18 -36 1 -73 5 -83 9 -10 4 -20 5 -23 2 -4 -3 -17 -1 -31 4 -22 8
-24 7 -19 -7 6 -15 -2 -16 -76 -10 -46 4 -110 9 -143 12 -33 2 -88 7 -122 10
-38 3 -63 1 -63 -5z"/>
<path d="M4553 6460 c-23 -9 -22 -39 1 -41 6 -1 16 -2 21 -3 6 -1 29 -6 53
-10 23 -5 42 -13 42 -18 0 -5 6 -8 13 -7 17 3 64 -11 112 -32 36 -17 34 -25
-5 -19 -31 4 6 -18 60 -35 30 -10 73 -27 95 -38 79 -39 131 -43 63 -4 -29 17
-31 20 -15 29 20 11 109 -10 101 -24 -3 -4 1 -5 9 -2 8 3 18 1 22 -5 10 -17
23 -13 30 9 5 16 15 20 46 20 21 0 39 4 39 9 0 8 -28 14 -130 26 -25 3 -67 11
-95 17 -27 6 -60 12 -72 14 -12 1 -28 6 -35 10 -7 5 -15 9 -18 9 -50 8 -196
54 -245 78 -45 22 -68 26 -92 17z"/>
<path d="M5352 6271 c-22 -6 -20 -8 22 -28 25 -13 46 -29 46 -37 0 -8 7 -16
15 -20 18 -7 20 5 3 23 -10 11 -8 11 9 0 13 -8 22 -21 20 -29 -1 -11 7 -15 30
-14 18 1 30 -2 27 -7 -3 -5 8 -9 24 -9 16 0 35 -7 42 -15 10 -12 15 -12 37 2
23 15 27 15 54 -1 24 -14 29 -15 29 -3 0 19 46 19 61 1 9 -11 8 -14 -5 -14
-35 0 -13 -22 50 -50 70 -32 86 -32 80 2 -3 22 -26 38 -26 19 0 -6 -10 -9 -22
-7 -13 3 -26 5 -30 5 -5 1 -8 5 -8 10 0 13 -41 56 -60 64 -9 3 -10 6 -2 6 26
2 10 21 -18 21 -22 0 -30 -5 -30 -17 -1 -17 -1 -17 -14 0 -7 9 -18 17 -24 17
-6 0 -9 7 -6 15 5 11 -1 15 -20 15 -14 0 -26 -5 -26 -10 0 -6 -13 -1 -28 10
-27 20 -160 61 -192 59 -8 -1 -26 -4 -38 -8z"/>
<path d="M2781 5925 c-23 -110 -27 -118 -54 -138 -18 -14 -41 -20 -74 -19 -42
1 -45 0 -23 -9 14 -6 41 -8 60 -4 49 8 58 8 125 -6 43 -9 60 -9 63 0 3 8 9 8
25 -1 12 -7 24 -13 27 -14 3 0 13 -4 23 -9 10 -4 31 -5 47 -1 23 4 30 2 30
-10 0 -8 4 -13 9 -10 5 4 11 1 13 -6 3 -8 29 -13 76 -13 39 -1 77 -7 85 -13 8
-7 17 -9 20 -5 4 3 14 0 23 -8 21 -17 51 -22 59 -9 4 6 17 2 32 -10 14 -11 35
-20 47 -20 11 0 62 -9 111 -20 108 -24 152 -31 185 -33 14 -1 27 -4 30 -7 16
-16 48 -25 70 -19 14 4 18 7 9 8 -9 1 -22 8 -29 16 -7 9 -21 13 -31 10 -13 -4
-19 -1 -19 9 0 10 -6 13 -15 10 -10 -4 -15 0 -15 14 0 23 22 42 28 24 2 -7 11
-12 21 -12 9 0 22 -5 29 -12 7 -7 12 -8 12 -2 0 6 -5 15 -12 22 -9 9 -9 12 2
12 19 0 50 -20 33 -20 -7 0 -13 -4 -13 -10 0 -5 7 -10 15 -10 8 0 15 5 15 10
0 6 10 1 22 -10 20 -18 24 -19 34 -6 11 15 21 15 119 1 40 -6 54 -9 220 -44
50 -11 114 -24 144 -30 29 -6 67 -18 85 -25 30 -14 67 -22 136 -31 19 -3 41
-7 49 -10 11 -5 12 -3 1 10 -7 9 -19 14 -27 11 -7 -3 -13 -1 -13 5 0 6 -4 8
-9 4 -5 -3 -27 1 -48 10 -21 8 -74 22 -118 31 -86 17 -90 18 -150 34 -22 6
-56 13 -75 16 -19 2 -51 9 -70 13 -19 5 -42 9 -50 9 -8 1 -44 8 -80 17 -76 18
-252 54 -293 60 -16 2 -41 7 -57 10 -41 9 -57 -3 -30 -22 17 -12 19 -17 9 -24
-11 -6 -10 -11 6 -23 19 -13 18 -14 -8 -9 -16 3 -35 17 -44 30 -12 18 -22 23
-39 19 -16 -4 -31 2 -52 24 -36 36 -49 38 -55 8 l-4 -23 -2 23 c0 13 -7 22
-17 22 -10 0 -14 -6 -10 -15 3 -8 1 -15 -4 -15 -6 0 -10 6 -10 14 0 8 -5 18
-10 21 -7 4 -8 -3 -4 -20 6 -24 5 -26 -22 -20 -16 4 -42 13 -59 20 -16 7 -55
16 -85 20 -30 4 -68 10 -85 15 -84 24 -124 33 -168 35 -26 2 -58 10 -71 18
-16 11 -27 12 -34 5 -7 -7 -17 -6 -31 1 -12 7 -21 8 -21 4 0 -4 -5 0 -11 10
-15 25 -3 38 26 27 15 -6 27 -6 30 0 4 6 -1 12 -9 15 -9 3 -23 7 -32 10 -29 9
-4 24 26 15 18 -5 30 -5 30 1 0 5 -13 12 -30 16 -35 6 -41 32 -7 34 15 1 17 3
5 6 -9 2 -18 16 -20 31 -3 20 -7 11 -17 -33z"/>
<path d="M3056 5921 c-9 -13 41 -34 62 -26 8 3 16 -3 19 -15 3 -11 9 -17 14
-14 5 3 7 10 3 16 -4 6 12 7 47 2 77 -10 96 -12 169 -20 36 -4 73 -11 83 -16
11 -6 17 -5 17 2 0 6 10 8 23 5 12 -2 46 -7 76 -10 65 -6 72 -10 30 -19 -43
-8 -32 -16 31 -22 29 -2 58 -8 64 -12 6 -4 40 -9 76 -11 36 -2 72 -7 80 -11
13 -7 91 -20 150 -25 9 0 21 -4 28 -9 7 -4 12 -2 12 4 0 13 -60 40 -90 40 -11
0 -23 7 -26 15 -4 8 -10 13 -14 10 -5 -3 -11 -1 -15 5 -10 17 -25 11 -18 -7 5
-12 3 -14 -7 -8 -7 4 -33 10 -57 12 -24 2 -54 8 -68 13 -14 5 -31 7 -39 4 -8
-3 -17 -1 -21 5 -5 10 25 15 72 14 7 -1 10 3 7 8 -9 16 -84 11 -90 -6 -7 -18
-25 -20 -22 -2 2 6 -4 12 -12 12 -8 0 -28 6 -45 12 -16 6 -48 14 -70 18 -22 3
-69 10 -105 16 -36 6 -102 12 -148 14 -45 2 -111 6 -146 10 -42 5 -66 3 -70
-4z"/>
<path d="M5224 5831 c3 -4 24 -11 47 -15 39 -6 41 -8 23 -21 -11 -8 -14 -14
-6 -15 6 0 12 -4 12 -9 0 -5 -9 -7 -20 -4 -11 3 -20 12 -20 19 0 9 -12 14 -32
14 -18 0 -44 3 -57 7 -17 4 -22 3 -17 -5 4 -8 0 -12 -10 -12 -35 0 3 -23 43
-26 21 -1 88 -14 148 -27 146 -33 213 -39 200 -16 -4 6 -22 8 -45 4 -40 -7
-65 10 -39 26 10 6 8 9 -8 9 -13 0 -23 5 -23 10 0 9 14 14 33 11 4 0 7 5 7 13
0 8 -10 14 -22 14 -13 -1 -37 3 -55 7 -32 7 -32 7 -23 -24 5 -19 5 -33 -1 -37
-5 -3 -9 -2 -8 3 4 21 -2 33 -16 33 -8 0 -12 6 -9 13 3 9 -9 18 -34 25 -46 14
-75 15 -68 3z"/>
<path d="M3520 5781 c0 -4 11 -20 24 -34 19 -21 30 -25 47 -19 26 10 68 3 204
-31 117 -30 216 -53 265 -62 19 -4 62 -16 95 -27 66 -23 90 -29 245 -62 8 -2
23 -7 33 -11 11 -4 23 -3 29 3 13 13 21 11 -129 46 -124 29 -199 57 -170 64 9
2 17 8 17 13 0 14 -47 22 -67 10 -16 -9 -15 -10 7 -11 22 -1 23 -2 8 -11 -11
-6 -24 -6 -35 0 -21 11 -72 24 -173 46 -41 9 -131 30 -198 46 -68 16 -132 27
-141 24 -10 -3 -24 1 -31 10 -14 16 -30 20 -30 6z"/>
<path d="M4015 5710 c-32 -8 -29 -10 20 -16 17 -1 42 -5 58 -8 15 -3 27 -2 27
3 0 4 12 7 28 5 15 -2 61 -6 102 -8 41 -3 90 -10 109 -16 19 -5 37 -8 39 -5 2
2 10 -2 18 -9 8 -9 52 -17 114 -21 55 -4 103 -11 106 -16 9 -15 34 -10 28 6
-4 8 -10 13 -14 10 -5 -3 -11 -1 -14 4 -3 5 -39 12 -78 16 -40 4 -81 12 -91
17 -10 5 -30 11 -45 13 -15 2 -48 8 -73 14 -59 13 -294 21 -334 11z"/>
<path d="M2906 5588 c-9 -5 -21 -6 -26 -3 -6 3 -10 1 -10 -5 0 -14 44 -30 69
-25 12 2 21 0 21 -6 0 -5 -13 -9 -30 -9 -54 0 -31 -18 33 -26 34 -4 67 -6 72
-5 36 10 65 9 65 -3 0 -8 12 -16 28 -19 37 -7 39 -1 5 16 -26 14 -19 15 97 12
129 -4 155 -6 166 -18 11 -10 24 -9 24 3 0 6 -6 10 -14 10 -8 0 -16 4 -18 9
-1 5 -63 15 -137 21 -82 7 -143 18 -157 26 -12 8 -37 14 -55 14 -19 -1 -53 3
-75 8 -25 5 -49 5 -58 0z"/>
<path d="M3885 5581 c-3 -10 -13 -18 -22 -17 -10 0 -19 -8 -21 -19 -4 -17 -3
-18 14 -5 16 13 17 13 12 -1 -3 -9 -2 -22 3 -30 6 -10 9 -10 9 -2 0 14 71 7
80 -7 3 -5 20 -11 37 -15 18 -3 44 -10 59 -15 15 -6 35 -8 45 -5 11 4 19 2 19
-3 0 -17 50 -20 66 -5 20 20 18 33 -5 33 -11 0 -26 8 -33 18 -14 18 -68 23
-80 7 -5 -6 -11 -6 -16 2 -4 7 -37 14 -74 16 -70 5 -91 12 -85 30 4 14 57 21
57 7 0 -6 5 -8 11 -4 14 8 -2 18 -43 28 -21 5 -28 2 -33 -13z"/>
</g>
</svg>
